<?xml version="1.0" encoding="UTF-8"?>
<svg width="167px" height="53px" viewBox="0 0 167 53" version="1.1" xmlns="http://www.w3.org/2000/svg" xmlns:xlink="http://www.w3.org/1999/xlink">
    <!-- Generator: Sketch 63.1 (92452) - https://sketch.com -->
    <title>Group 4</title>
    <desc>Created with Sketch.</desc>
    <g id="Page-1" stroke="none" stroke-width="1" fill="none" fill-rule="evenodd">
        <g id="Personal-Site---Products" transform="translate(-475.000000, -809.000000)">
            <g id="App-Card" transform="translate(452.000000, 122.000000)">
                <g id="Group-4" transform="translate(24.000000, 688.000000)">
                    <g id="Apple-Button" opacity="0.1">
                        <g>
                            <rect id="Rectangle" stroke="#FFFFFF" x="0" y="0" width="165" height="51" rx="10"></rect>
                            <text id="Disponível-na-App-St" font-family="Roobert-Light, Roobert" font-size="15" font-weight="300" fill="#FFFFFF">
                                <tspan x="48" y="20">Disponível na</tspan>
                                <tspan x="48" y="38" font-family="Roobert-Medium, Roobert" font-size="20" font-weight="400">App Store</tspan>
                            </text>
                        </g>
                        <g id="Apple-Logo" transform="translate(9.750000, 8.500000)" fill="#FFFFFF" fill-rule="nonzero">
                            <g id="_Group_3">
                                <path d="M23.8531261,18.3869413 C23.8875746,15.7131557 25.2893242,13.2433912 27.5672696,11.8429337 C26.1236884,9.78124295 23.7924657,8.52094958 21.2768543,8.44224239 C18.6302261,8.1644413 16.0644353,10.0259418 14.715762,10.0259418 C13.3409886,10.0259418 11.264494,8.46982391 9.02845217,8.51582989 C6.08640416,8.6108812 3.4101075,10.2430565 1.9787413,12.8151902 C-1.06941087,18.0925913 1.20423641,25.848594 4.12411087,30.1144467 C5.58498587,32.2033136 7.29232935,34.5366315 9.5263538,34.453887 C11.712481,34.3632147 12.5289571,33.0598696 15.1677995,33.0598696 C17.7821495,33.0598696 18.548175,34.453887 20.8275277,34.4012772 C23.173344,34.3631989 24.6513196,32.3031272 26.0609402,30.1944804 C27.1105765,28.7060865 27.9182699,27.0610871 28.4541022,25.3204158 C25.6679848,24.1420248 23.8563779,21.4120106 23.8531261,18.3869413 L23.8531261,18.3869413 Z" id="_Path_"></path>
                                <path d="M19.5478397,5.6367288 C20.8268762,4.10129213 21.4570089,2.12774843 21.3044201,0.135208152 C19.3503368,0.340446964 17.5453112,1.27437177 16.2489951,2.75089783 C14.9689426,4.20768923 14.3204709,6.11356237 14.4464087,8.04874076 C16.4266939,8.06913023 18.306933,7.18013279 19.5478397,5.6367288 L19.5478397,5.6367288 Z" id="_Path_2"></path>
                            </g>
                        </g>
                    </g>
                    <text id="Em-breve" font-family="Roobert-Bold, Roobert" font-size="20" font-weight="bold" fill="#FFFFFF">
                        <tspan x="39.72" y="33.5">Em breve</tspan>
                    </text>
                </g>
            </g>
        </g>
    </g>
</svg>