<?xml version="1.0" encoding="UTF-8"?>
<svg width="83px" height="83px" viewBox="0 0 83 83" version="1.1" xmlns="http://www.w3.org/2000/svg" xmlns:xlink="http://www.w3.org/1999/xlink">
    <!-- Generator: Sketch 63.1 (92452) - https://sketch.com -->
    <title>Coronavirus Real-time Tracker</title>
    <desc>Created with Sketch.</desc>
    <defs>
        <filter x="-16.0%" y="-16.0%" width="132.0%" height="132.0%" filterUnits="objectBoundingBox" id="filter-1">
            <feOffset dx="0" dy="2" in="SourceAlpha" result="shadowOffsetOuter1"></feOffset>
            <feGaussianBlur stdDeviation="2" in="shadowOffsetOuter1" result="shadowBlurOuter1"></feGaussianBlur>
            <feColorMatrix values="0 0 0 0 0   0 0 0 0 0   0 0 0 0 0  0 0 0 0.5 0" type="matrix" in="shadowBlurOuter1" result="shadowMatrixOuter1"></feColorMatrix>
            <feMerge>
                <feMergeNode in="shadowMatrixOuter1"></feMergeNode>
                <feMergeNode in="SourceGraphic"></feMergeNode>
            </feMerge>
        </filter>
        <linearGradient x1="50%" y1="100%" x2="50%" y2="0%" id="coronaLinearGradient-2">
            <stop stop-color="#000000" offset="0%"></stop>
            <stop stop-color="#3C3C3C" offset="100%"></stop>
        </linearGradient>
        <filter x="-31.5%" y="-35.2%" width="163.3%" height="171.9%" filterUnits="objectBoundingBox" id="corona-filter-3">
            <feOffset dx="0" dy="2" in="SourceAlpha" result="shadowOffsetOuter1"></feOffset>
            <feGaussianBlur stdDeviation="2.5" in="shadowOffsetOuter1" result="shadowBlurOuter1"></feGaussianBlur>
            <feColorMatrix values="0 0 0 0 0   0 0 0 0 0   0 0 0 0 0  0 0 0 0.5 0" type="matrix" in="shadowBlurOuter1" result="shadowMatrixOuter1"></feColorMatrix>
            <feMerge>
                <feMergeNode in="shadowMatrixOuter1"></feMergeNode>
                <feMergeNode in="SourceGraphic"></feMergeNode>
            </feMerge>
        </filter>
    </defs>
    <g id="Corona-1" stroke="none" stroke-width="1" fill="none" fill-rule="evenodd">
        <g id="Artboard" transform="translate(-350.000000, -40.000000)">
            <g id="Coronavirus-Real-time-Tracker" filter="url(#filter-1)" transform="translate(354.000000, 42.000000)">
                <g id="GroupCorona" fill="url(#coronaLinearGradient-2)">
                    <rect id="CoronaRectangle" x="0" y="0" width="75" height="75" rx="14.765625"></rect>
                </g>
                <g id="biohazard-2" filter="url(#corona-filter-3)" transform="translate(16.259766, 12.890625)">
                    <path d="M21.174569,8.55402958 C14.2556131,8.55402958 8.63798344,14.1703359 8.63798344,21.0906151 C8.63798344,28.0108944 14.2556131,33.6271179 21.174569,33.6271179 C28.0941865,33.6271179 33.7110718,28.0108116 33.7110718,21.0905324 C33.7110718,14.1702531 28.0941865,8.55402958 21.174569,8.55402958 Z M21.174569,31.1457231 C15.6250949,31.1457231 11.1193782,26.640999 11.1193782,21.0905324 C11.1193782,15.5400658 15.6250949,11.0354244 21.174569,11.0354244 C26.7245393,11.0354244 31.229677,15.5401485 31.229677,21.0906151 C31.229677,26.6410817 26.7245393,31.1457231 21.174569,31.1457231 L21.174569,31.1457231 Z" id="Shape" fill="#C30047"></path>
                    <path d="M31.229677,21.0905324 C31.229677,26.640999 26.7245393,31.1457231 21.174569,31.1457231 L21.174569,33.6271179 C28.0941865,33.6271179 33.7110718,28.0108116 33.7110718,21.0905324 C33.7110718,14.1702531 28.0941865,8.55402958 21.174569,8.55402958 L21.174569,11.0354244 C26.7245393,11.0354244 31.229677,15.5400658 31.229677,21.0905324 Z" id="Path" fill="#A20F59"></path>
                    <path d="M36.3877523,16.102019 C35.1269557,15.3739778 33.7468039,14.8849776 32.3212425,14.6551177 C32.8347258,13.3060661 33.1014758,11.8661126 33.1014758,10.4099475 C33.1014758,4.44459165 29.0352141,1.22456833 27.3304132,0.194541352 C26.7856643,-0.134657025 26.0805346,-0.00049627896 25.694595,0.505625547 C25.3087381,1.01174737 25.3661411,1.72729892 25.8277632,2.16534782 C27.188891,3.45724466 27.9385203,5.19984552 27.9385203,7.07222332 C27.9385203,10.8018424 24.9042708,13.8361747 21.1744863,13.8361747 C17.4447017,13.8361747 14.4104522,10.8018424 14.4104522,7.07222332 C14.4104522,5.19992823 15.1600815,3.45732738 16.5212093,2.16534782 C16.9828314,1.72721621 17.0402344,1.01174737 16.6543775,0.505625547 C16.2684379,-0.0004135658 15.5632255,-0.134657025 15.0185593,0.194541352 C13.3154126,1.22349306 9.24749672,4.44326824 9.24749672,10.4099475 C9.24749672,11.8659472 9.51424666,13.3059833 10.02773,14.6551177 C8.60241678,14.8850603 7.22201685,15.3739778 5.96138558,16.1019363 C0.794046336,19.0849864 0.0397023168,24.2191577 -2.01837811e-06,26.2078302 C-0.012406974,26.8441425 0.45649393,27.3878161 1.08767805,27.4687923 C1.71911032,27.5499339 2.30993042,27.1422407 2.45840054,26.5233809 C2.8962013,24.6990594 4.03052957,23.1785434 5.65253464,22.2419823 C8.87677633,20.3801091 13.0180588,21.4720882 14.8921736,24.7175872 C16.7568591,27.9476188 15.6462695,32.0927888 12.416486,33.9577224 C10.7940674,34.8940354 8.91010974,35.1162029 7.11184292,34.5831993 C6.5014198,34.4023884 5.85311406,34.7102468 5.6076214,35.2975929 C5.36212874,35.8848563 5.59860566,36.5626907 6.15600965,36.8698874 C7.92846995,37.8467298 12.7456017,39.7291159 17.8883751,36.7602097 C19.1493372,36.0320858 20.2629872,35.0810498 21.1744863,33.9621062 C22.0859853,35.0811326 23.199718,36.0321685 24.4607628,36.7602924 C29.6253725,39.741771 34.4465572,37.8323377 36.1929629,36.8698874 C36.7503668,36.5626907 36.9868438,35.8847736 36.7413511,35.2975929 C36.4957757,34.7102468 35.8473873,34.4023884 35.2371296,34.5831993 C33.4390282,35.1162029 31.5550705,34.8940354 29.9328173,33.9578878 C26.7027857,32.0927888 25.5921134,27.9476188 27.4568816,24.7176699 C29.3186721,21.4933455 33.4507735,20.3677848 36.6965206,22.2419823 C38.3184429,23.1785434 39.4527712,24.6990594 39.890572,26.5233809 C40.0391248,27.1422407 40.6306893,27.5499339 41.2612945,27.4687923 C41.8925613,27.3877334 42.3612968,26.8441425 42.3489714,26.2078302 C42.3095183,24.2191577 41.5553397,19.0850691 36.3877523,16.102019 Z M21.174569,22.3312298 C20.4897867,22.3312298 19.9338716,21.7753974 19.9338716,21.0905324 C19.9338716,20.4056674 20.4897867,19.849835 21.174569,19.849835 C21.8593512,19.849835 22.4152664,20.4056674 22.4152664,21.0905324 C22.4152664,21.7753974 21.8593512,22.3312298 21.174569,22.3312298 Z" id="Shape" fill="#FF4D05"></path>
                    <path d="M22.4152664,21.0905324 C22.4152664,21.7753974 21.8593512,22.3312298 21.1744863,22.3312298 L21.1744863,33.9620235 C22.0861507,35.0810498 23.1998007,36.0320858 24.4608455,36.7602924 C29.6254552,39.741771 34.4466399,37.8323377 36.1930456,36.8698874 C36.7504496,36.5626907 36.9869265,35.8847736 36.7414338,35.2975929 C36.4958584,34.7103295 35.84747,34.4023884 35.2372123,34.5831993 C33.4391109,35.1162029 31.5551533,34.8941181 29.9329001,33.9578878 C26.7028684,32.0927888 25.5921961,27.9476188 27.4569643,24.7176699 C29.3187548,21.4933455 33.4508562,20.3678675 36.6966033,22.2419823 C38.3185256,23.1785434 39.4528539,24.6989767 39.8906547,26.5233809 C40.0392075,27.1422407 40.630772,27.5499339 41.2613772,27.4687923 C41.892644,27.3878161 42.3613795,26.8441425 42.3488071,26.2078302 C42.3094356,24.2191577 41.555257,19.0850691 36.3876696,16.102019 C35.1268729,15.3739778 33.7467211,14.8849776 32.3211598,14.6551177 C32.8346431,13.3060661 33.1013931,11.8661126 33.1013931,10.4100302 C33.1013931,4.44467437 29.0351314,1.22465105 27.3303305,0.194624066 C26.7855816,-0.134574311 26.0804519,-0.0004135658 25.694595,0.50570826 C25.3087381,1.01183009 25.3661411,1.72738163 25.8277632,2.16543053 C27.188891,3.45732738 27.9385203,5.19992823 27.9385203,7.07230603 C27.9385203,10.8019251 24.9042708,13.8362574 21.1744863,13.8362574 L21.1744863,19.8497523 C21.8593512,19.849835 22.4152664,20.4056674 22.4152664,21.0905324 L22.4152664,21.0905324 Z" id="Path" fill="#FF1F3D"></path>
                </g>
                <text id="COVID-19" font-family="Roobert-Light, Roobert" font-size="9.0234375" font-weight="300" fill="#FFFFFF">
                    <tspan x="17.6935547" y="64.5">COVID-19</tspan>
                </text>
            </g>
        </g>
    </g>
</svg>