<?xml version="1.0" encoding="UTF-8"?>
<svg width="252px" height="292px" viewBox="0 0 252 292" version="1.1" xmlns="http://www.w3.org/2000/svg" xmlns:xlink="http://www.w3.org/1999/xlink">
    <!-- Generator: Sketch 63.1 (92452) - https://sketch.com -->
    <title>Formatagram Slide 2</title>
    <defs>
        <linearGradient x1="50.0001013%" y1="74.46371%" x2="50.0001013%" y2="24.3656824%" id="linearGradient-1">
            <stop stop-color="#FFFFFF" stop-opacity="0" offset="0%"></stop>
            <stop stop-color="#D2C4FF" stop-opacity="0.5" offset="100%"></stop>
        </linearGradient>
        <linearGradient x1="-1.26228644%" y1="49.5514377%" x2="99.299867%" y2="49.5514377%" id="linearGradient-2">
            <stop stop-color="#FFFFFF" offset="0%"></stop>
            <stop stop-color="#F2EEF6" offset="9%"></stop>
            <stop stop-color="#CBBFDB" offset="39%"></stop>
            <stop stop-color="#AF9CC8" offset="65%"></stop>
            <stop stop-color="#9E87BC" offset="86%"></stop>
            <stop stop-color="#987FB8" offset="100%"></stop>
        </linearGradient>
        <linearGradient x1="1.05854562e-13%" y1="50%" x2="100.000846%" y2="50%" id="linearGradient-3">
            <stop stop-color="#FFFFFF" offset="0%"></stop>
            <stop stop-color="#F2EEF6" offset="9%"></stop>
            <stop stop-color="#CBBFDB" offset="39%"></stop>
            <stop stop-color="#AF9CC8" offset="65%"></stop>
            <stop stop-color="#9E87BC" offset="86%"></stop>
            <stop stop-color="#987FB8" offset="100%"></stop>
        </linearGradient>
    </defs>
    <g id="Page-1" stroke="none" stroke-width="1" fill="none" fill-rule="evenodd">
        <g id="Portuguese-Slide-2-iPhone-6,5" transform="translate(-140.000000, -465.000000)">
            <g id="Group-3" transform="translate(61.992771, 264.992771)">
                <g id="Image/Slide2" transform="translate(78.007229, 192.007229)">
                    <g id="Group">
                        <path d="M32.0425623,272.467264 C32.0425623,272.467264 -20.1566658,212.839759 15.954887,160.176466 C52.0664397,107.513174 -88.5080259,94.0166216 104.997084,13.4309459 C113.31032,9.96887864 238.911203,78.2646354 246.270738,94.0166216 C274.624957,154.7046 190.257722,265.458733 163.287616,277.092327 C127.786439,292.329497 32.0425623,272.467264 32.0425623,272.467264 Z" id="Path" fill="url(#linearGradient-1)" fill-rule="nonzero" style="mix-blend-mode: multiply;"></path>
                        <g id="Group-2" transform="translate(26.358971, 0.000000)" fill-rule="nonzero">
                            <g id="Asset-4">
                                <circle id="Oval" fill="#FFFFFF" transform="translate(29.766132, 29.812904) rotate(-45.000000) translate(-29.766132, -29.812904) " cx="29.7661322" cy="29.8129036" r="21.0323459"></circle>
                                <path d="M40.5124462,22.1907276 C33.7798325,16.1370328 29.7628948,25.1468542 29.7628948,25.1468542 C29.7628948,25.1468542 25.7601014,16.1370328 19.0133435,22.1907276 C14.8832527,25.8823498 22.2382089,34.0293782 26.7077592,38.3150546 C28.4074283,39.9587048 31.1042172,39.9587048 32.8038864,38.3150546 C37.2875808,34.0293782 44.642537,25.8823498 40.5124462,22.1907276 Z" id="Path" fill="#FF6687"></path>
                                <path d="M104.542998,77.5650613 L106.098854,81.4688458 C106.510685,82.7911731 105.796243,84.2012559 104.486421,84.6512787 C103.485474,84.9860572 102.423255,85.0971073 101.374709,84.9765941 C100.214889,84.9765941 99.5642581,83.8450624 99.4793932,82.359927 C99.4078907,80.7675587 99.6087954,79.1746714 100.073447,77.6499262 C100.738222,75.4575835 103.312457,75.1039798 104.542998,77.5650613 Z" id="Path" fill="#D1ADA3"></path>
                                <path d="M106.141286,81.4688458 L106.141286,81.3415484 C105.999733,82.2948316 105.34028,83.0905347 104.429845,83.4065938 C103.428823,83.7412217 102.365594,83.8475446 101.318132,83.7177651 C100.398763,83.7177651 99.7905644,82.9822694 99.5359698,81.9356026 C99.5359698,82.0770441 99.5359698,82.2184855 99.5359698,82.359927 C99.6208347,83.7743417 100.271465,84.9058734 101.431285,84.9765941 C102.479832,85.0971073 103.54205,84.9860572 104.542998,84.6512787 C105.847177,84.1954877 106.55448,82.7871396 106.141286,81.4688458 Z" id="Path" fill="url(#linearGradient-2)" style="mix-blend-mode: multiply;"></path>
                                <path d="M130.907687,148.158497 C130.907687,148.158497 129.592281,145.075073 128.828497,146.277325 C128.275177,148.073194 128.669153,150.027101 129.875164,151.468227 C130.808678,152.033993 132.138228,151.086335 132.138228,151.086335 L130.907687,148.158497 Z" id="Path" fill="#8B61C2"></path>
                                <path d="M105.306782,80.2807375 L108.40435,86.9284863 C106.989935,89.9977661 101.063538,88.2721803 101.502006,87.2255134 L104.118673,81.5678548 L105.306782,80.2807375 Z" id="Path" fill="#D1ADA3"></path>
                                <path d="M81.4880388,88.6682164 L66.1982164,88.6682164 C60.0738009,88.6682164 52.6622681,89.2339822 51.5024481,85.8393871 C49.9748803,81.2849719 30.6964085,41.4833435 30.6964085,41.4833435 C30.6964085,41.4833435 32.1108232,35.8256848 31.4319041,34.4112702 C30.7529851,32.9968555 29.2678497,28.5414494 27.7968585,28.3292872 C26.3258672,28.117125 28.7020839,32.3886572 28.7020839,33.2231619 C28.7020839,34.0576665 24.6568579,34.5527116 24.0203713,36.5046039 C23.7014172,38.3770041 23.7014172,40.2898622 24.0203713,42.1622625 C24.0203713,42.1622625 18.9850552,76.5042503 35.7458688,98.7388487 C52.5066825,120.973447 97.7820956,107.875967 97.7820956,107.875967 L81.4880388,88.6682164 Z" id="Path" fill="#D1ADA3"></path>
                                <path d="M51.1629886,109.134796 L50.4416371,92.5012801 C50.4416371,92.5012801 44.9537082,100.04011 43.963618,105.966508 C46.2421979,107.279006 48.6560174,108.341276 51.1629886,109.134796 L51.1629886,109.134796 Z" id="Path" fill="#2D2D2D"></path>
                                <path d="M105.122908,83.7460534 C106.223124,83.658146 107.144867,82.8786468 107.414259,81.8083053 C107.838584,79.9695662 108.022458,75.118124 106.975791,74.2270427 C105.929124,73.3359615 103.524619,72.897493 103.453898,72.3883037 C103.383178,71.8791144 100.342186,68.1450597 97.145609,70.973889 C93.9490319,73.8027183 99.9744383,79.9978545 100.610925,80.337314 C101.247412,80.6767736 102.67597,83.9723597 105.122908,83.7460534 Z" id="Path" fill="#620350"></path>
                                <path d="M86.4526342,139.318405 C86.4526342,139.318405 72.5913706,149.459758 72.5913706,192.542829 C72.5913706,216.0504 76.0708307,289.133205 76.0708307,289.133205 L84.5573186,289.133205 C84.5573186,289.133205 98.3620056,236.163377 100.681646,224.989501 C102.393087,216.785896 99.6208347,207.648777 99.6208347,207.648777 C99.6208347,207.648777 104.302547,175.668862 107.24453,175.569853 C109.465161,175.569853 107.428404,190.293909 108.23462,211.934454 C109.309575,240.109594 114.61363,289.133205 114.61363,289.133205 L124.118497,289.133205 C124.118497,289.133205 138.107057,206.220218 136.339039,169.982915 C135.603544,154.862822 125.405614,136.532008 125.405614,136.532008 L86.4526342,139.318405 Z" id="Path" fill="#BBBBBB"></path>
                                <path d="M120.865343,107.465787 C120.32948,103.227723 122.11836,99.0296538 125.546324,96.4806548 C128.974288,93.9316558 133.509628,93.4271005 137.413994,95.1603796 C144.839671,98.4276775 152.972555,103.038669 159.068683,109.177229 C173.424991,123.731556 164.938503,146.786515 132.194804,151.086335 L130.964263,148.158497 C130.964263,148.158497 147.555347,129.502367 147.555347,124.283177 C147.555347,119.063987 121.643271,113.095157 121.643271,113.095157 L120.865343,107.465787 Z" id="Path" fill="#D1ADA3"></path>
                                <path d="M149.988141,132.826242 C152.338686,135.719305 155.026234,138.321384 157.993728,140.577234 C159.113642,139.559153 160.14953,138.452314 161.091296,137.267504 L149.988141,132.826242 Z" id="Path" fill="#2D2D2D"></path>
                                <path d="M158.220034,107.904256 C144.075887,93.0953342 117.428315,88.6682164 117.428315,88.6682164 L121.586694,113.095157 C121.586694,113.095157 147.498771,119.063987 147.498771,124.283177 C147.498771,125.457142 146.621834,127.112007 143.962734,129.092187 C146.890572,131.270386 156.098412,136.701738 162.703728,137.903991 C169.422198,129.162908 167.173279,117.295969 158.220034,107.904256 Z" id="Path" fill="#FF6687"></path>
                                <path d="M97.7396632,107.875967 L81.4880388,88.6682164 L66.1982164,88.6682164 C61.1629002,88.6682164 55.2506469,89.0501083 52.6764123,87.2538017 C51.2619976,90.5210996 47.0187536,98.569119 47.4572222,109.064076 C67.5984869,116.758491 97.7396632,107.875967 97.7396632,107.875967 Z" id="Path" fill="#FF6687"></path>
                                <path d="M132.421111,152.203723 C127.78183,138.059576 133.934534,103.222543 124.938857,94.1278569 C112.378855,81.398125 97.62651,86.4617295 81.4880388,88.6682164 C80.3706512,90.9878564 76.6648848,138.639486 79.9463268,148.823272 C94.9391222,154.537507 128.347596,156.772282 132.421111,152.203723 Z" id="Path" fill="#E0E0E0"></path>
                                <path d="M98.8287625,102.642633 C98.8287625,102.642633 95.9999332,88.8945227 91.8698424,87.0840719 C91.8698424,87.0840719 94.6986717,85.6696573 96.6081315,86.4051529 C100.769797,89.8749748 103.292589,94.925687 103.567052,100.337137 C104.161106,109.573265 98.8287625,102.642633 98.8287625,102.642633 Z" id="Path" fill="#3F63D8"></path>
                                <path d="M117.456603,88.6682164 C117.456603,88.6682164 120.978496,95.103803 121.190658,100.351281 L125.193452,101.977858 C125.193452,101.977858 122.548496,90.662541 121.798856,89.7856039 C120.620695,88.7265099 118.999643,88.3093664 117.456603,88.6682164 L117.456603,88.6682164 Z" id="Path" fill="#3F63D8"></path>
                                <path d="M130.836966,142.953451 C130.638948,140.591378 130.525795,138.045432 130.469218,135.400477 L111.926242,138.922369 C117.994689,141.197602 124.368201,142.556204 130.836966,142.953451 Z" id="Path" fill="#2D2D2D"></path>
                                <path d="M97.7396632,132.302908 C97.7396632,132.302908 83.5955166,133.618314 78.6309212,129.474079 C78.6309212,129.474079 76.976056,132.769665 79.1966871,134.820567 C81.4173181,136.871468 94.3875005,139.573 101.021105,136.489576 C109.550026,132.585791 97.7396632,132.302908 97.7396632,132.302908 Z" id="Path" fill="#3F63D8"></path>
                                <path d="M107.470836,97.8336233 C107.088944,97.3102899 105.236061,94.5946138 106.056421,92.685154 C106.443534,91.8034568 107.288099,91.2095374 108.248764,91.143442 C110.399188,90.8098438 112.566659,90.5973466 114.740927,90.5069554 C117.202009,90.4220905 119.776244,90.5918203 120.101559,92.3739828 C120.28302,93.7825773 120.28302,95.2086322 120.101559,96.6172267 L117.810207,96.3201997 C117.925467,95.2388778 117.925467,94.1483678 117.810207,93.0670459 C116.904982,92.6992981 113.496242,92.7134423 108.531647,93.4772262 C108.262908,93.4772262 108.149755,93.5903794 108.135611,93.6186677 C107.937593,94.0854245 108.602368,95.5564157 109.295431,96.5182177 L107.470836,97.8336233 Z" id="Path" fill="#3F63D8"></path>
                                <path d="M95.985789,112.034346 C95.985789,112.034346 93.0438065,99.0783082 102.661826,97.1405602 C112.279846,95.2028121 122.817235,93.8025416 125.646064,102.020291 C128.474894,110.23804 129.11138,135.796513 127.187776,137.720117 C125.264172,139.643721 98.687321,138.99309 97.2729064,137.720117 C95.8584917,136.447143 97.4002037,116.022996 95.985789,112.034346 Z" id="Path" fill="#3F63D8"></path>
                                <path d="M100.130024,112.034346 C100.130024,112.034346 97.1738973,99.0783082 106.806061,97.1405602 C116.438225,95.2028121 126.96147,93.8025416 129.776155,102.020291 C132.59084,110.23804 133.241471,135.796513 131.317867,137.720117 C129.394263,139.643721 102.817412,138.99309 101.402997,137.720117 C99.9885825,136.447143 101.530294,116.022996 100.130024,112.034346 Z" id="Path" fill="#5BD8C0"></path>
                                <path d="M105.306782,133.222278 C103.614972,132.789715 102.052583,131.955147 100.752366,130.789485 C100.752366,134.438675 100.907952,137.267504 101.402997,137.720117 C102.817412,138.99309 129.394263,139.643721 131.317867,137.720117 C131.798768,137.239216 132.124083,135.301468 132.293813,132.529215 C125.349037,134.367954 108.192187,133.887053 105.306782,133.222278 Z" id="Path" fill="#3F63D8"></path>
                                <path d="M103.793356,119.007411 L103.793356,128.696151 C103.791573,129.98376 104.798884,131.047032 106.08471,131.1148 C110.865431,131.369395 121.91201,131.892728 127.046335,131.383539 C128.290068,131.267373 129.24371,130.228147 129.252822,128.979034 L129.252822,119.078131 C129.252822,117.742348 128.169956,116.659482 126.834173,116.659482 L106.212007,116.659482 C104.903362,116.658923 103.831622,117.699325 103.793356,119.007411 Z" id="Path" fill="#3F63D8"></path>
                                <path d="M123.354713,291.650864 C119.903541,289.79798 116.820117,293.701765 115.052099,294.550414 C114.130486,295.071751 112.964705,294.822809 112.336422,293.970504 C110.73567,295.046274 109.381077,296.449074 108.361917,298.08645 C107.31525,300.533388 122.506064,299.981766 126.749308,299.698883 C129.45084,299.515009 127.399939,295.993117 125.759218,292.966269 C125.023722,292.556089 124.23165,292.131765 123.354713,291.650864 Z" id="Path" fill="#2D2D2D"></path>
                                <path d="M115.052099,294.550414 C116.820117,293.701765 119.903541,289.79798 123.354713,291.650864 C124.23165,292.131765 125.023722,292.570233 125.702641,292.966269 C124.904654,291.824892 124.386228,290.511869 124.189217,289.133205 L114.627774,289.133205 L114.95309,292.075188 C114.95309,292.075188 113.708405,292.86726 112.279846,293.970504 C112.913059,294.854487 114.117653,295.106468 115.052099,294.550414 Z" id="Path" fill="#D1ADA3"></path>
                                <path d="M83.7793905,291.650864 C80.3282188,289.79798 77.258939,293.701765 75.4767765,294.550414 C74.5551641,295.071751 73.3893828,294.822809 72.7611004,293.970504 C71.167094,295.054304 69.8140163,296.455534 68.7865952,298.08645 C67.7399283,300.533388 82.9307417,299.981766 87.1739857,299.698883 C89.8755177,299.515009 87.8246165,295.993117 86.1838955,292.966269 C85.4483998,292.556089 84.6704718,292.131765 83.7793905,291.650864 Z" id="Path" fill="#2D2D2D"></path>
                                <path d="M75.4767765,294.550414 C77.258939,293.701765 80.3282188,289.79798 83.7793905,291.650864 C84.6704718,292.131765 85.4483998,292.570233 86.1273189,292.966269 C85.3380525,291.821616 84.8248614,290.50959 84.6280393,289.133205 L76.1415514,289.133205 L75.5050648,292.075188 C75.5050648,292.075188 74.2603799,292.86726 72.8318211,293.970504 C73.4529241,294.784771 74.5719675,295.030122 75.4767765,294.550414 Z" id="Path" fill="#D1ADA3"></path>
                                <path d="M160.921566,137.49381 C161.529764,137.66354 162.123818,137.790837 162.703728,137.903991 C169.422198,129.162908 167.173279,117.295969 158.220034,107.904256 C150.044717,99.3046146 137.612012,94.2127218 128.630479,91.4404691 C136.791652,97.0981277 156.593457,111.680743 157.102646,121.949393 C157.753277,134.919576 133.439489,150.902461 133.439489,150.902461 C146.692554,148.922281 155.829673,143.816244 160.921566,137.49381 Z" id="Path" fill="url(#linearGradient-3)" style="mix-blend-mode: multiply;"></path>
                            </g>
                        </g>
                    </g>
                </g>
            </g>
        </g>
    </g>
</svg>