<?xml version="1.0" encoding="UTF-8"?>
<svg width="257px" height="276px" viewBox="0 0 257 276" version="1.1" xmlns="http://www.w3.org/2000/svg" xmlns:xlink="http://www.w3.org/1999/xlink">
    <!-- Generator: Sketch 63.1 (92452) - https://sketch.com -->
    <title>Image/Slide1</title>
    <desc>Created with Sketch.</desc>
    <defs>
        <linearGradient x1="50.0001013%" y1="74.46371%" x2="50.0001013%" y2="24.3656824%" id="linearGradient-1">
            <stop stop-color="#FFFFFF" stop-opacity="0" offset="0%"></stop>
            <stop stop-color="#D2C4FF" stop-opacity="0.5" offset="100%"></stop>
        </linearGradient>
        <linearGradient x1="51.8373591%" y1="38.0059329%" x2="34.7040843%" y2="83.507161%" id="linearGradient-2">
            <stop stop-color="#FFFFFF" offset="0%"></stop>
            <stop stop-color="#F2EEF6" offset="9%"></stop>
            <stop stop-color="#CBBFDB" offset="39%"></stop>
            <stop stop-color="#AF9CC8" offset="65%"></stop>
            <stop stop-color="#9E87BC" offset="86%"></stop>
            <stop stop-color="#987FB8" offset="100%"></stop>
        </linearGradient>
        <linearGradient x1="-1.3621364e-13%" y1="50.0005038%" x2="100.021382%" y2="50.0005038%" id="linearGradient-3">
            <stop stop-color="#FFFFFF" offset="0%"></stop>
            <stop stop-color="#EAEAEA" offset="18%"></stop>
            <stop stop-color="#C8C8C8" offset="53%"></stop>
            <stop stop-color="#B3B3B3" offset="81%"></stop>
            <stop stop-color="#ABABAB" offset="100%"></stop>
        </linearGradient>
        <linearGradient x1="-0.0166803106%" y1="49.9945457%" x2="100%" y2="49.9945457%" id="linearGradient-4">
            <stop stop-color="#FFFFFF" offset="0%"></stop>
            <stop stop-color="#EAEAEA" offset="18%"></stop>
            <stop stop-color="#C8C8C8" offset="53%"></stop>
            <stop stop-color="#B3B3B3" offset="81%"></stop>
            <stop stop-color="#ABABAB" offset="100%"></stop>
        </linearGradient>
    </defs>
    <g id="Page-1" stroke="none" stroke-width="1" fill="none" fill-rule="evenodd">
        <g id="Portuguese-Slide-1-iPhone-6,5" transform="translate(-255.000000, -583.000000)">
            <g id="Group-3" transform="translate(61.992771, 264.992771)">
                <g id="Slide-1" transform="translate(1.507229, 33.007229)">
                    <g id="Asset-Slide-1">
                        <g id="Image/Slide1" transform="translate(191.604793, 285.538109)">
                            <g id="Group-2">
                                <g fill-rule="nonzero" id="Path">
                                    <path d="M32.4506274,287.302389 C32.4506274,287.302389 -27.6267278,161.525206 16.2288796,97.5683698 C60.0844869,33.6115336 196.323034,32.6122081 216.854492,74.6355711 C221.853755,84.9734217 208.028206,137.610311 228.042499,141.590384 C296.170392,155.184658 224.594731,278.790892 191.840936,292.919288 C148.726599,311.424041 32.4506274,287.302389 32.4506274,287.302389 Z" fill="url(#linearGradient-1)" style="mix-blend-mode: multiply;"></path>
                                    <path d="M170.099438,138.175368 L71.5111851,138.175368 L68.9801909,140.635365 L81.0325445,154.724436 L135.009871,170.206931 C135.009871,170.206931 131.7213,155.412546 134.114553,153.227794 C136.507806,151.043042 163.505078,149.271157 170.099438,138.175368 Z" fill="#2D2D2D"></path>
                                    <path d="M140.064604,1.08404245 C140.064604,1.08404245 143.586695,-1.77060137 148.356906,1.78488315 C153.127117,5.34036767 152.939044,13.3231142 148.527881,14.3658284 C144.116719,15.4085426 135.31149,5.97283366 140.064604,1.08404245 Z" fill="#2D2D2D"></path>
                                    <path d="M148.404388,9.09916719 C151.670773,16.9085821 152.858167,25.424705 151.851807,33.824438 C150.128097,47.8085433 126.961441,39.7955652 126.961441,39.7955652 C126.961441,39.7955652 125.030886,17.9185906 133.201269,8.49862279 C134.476815,7.02299941 135.959205,5.06694051 137.52778,4.8953564 C141.660434,4.13404567 145.870635,5.76128935 148.404388,9.09916719 L148.404388,9.09916719 Z" fill="#FF69E3"></path>
                                    <path d="M137.439805,28.8912134 C137.439805,28.8912134 96.7033302,37.2424719 89.5196195,51.0634596 C82.3359088,64.8844474 92.0926313,86.987675 92.0926313,86.987675 L112.452234,64.5566087 L129.72077,56.9818102 L137.439805,28.8912134 Z" fill="#D1ADA3"></path>
                                    <path d="M150.50322,77.315817 C148.69072,63.5280441 166.315121,47.448054 156.078814,36.9004077 C144.772269,25.1980355 133.862748,25.5082604 120.916322,39.916483 C111.18061,50.7571195 127.907392,58.254221 118.137156,77.8328585 C114.943704,84.2441729 91.933591,95.2571564 77.7788325,104.598373 C46.1550306,125.452379 26.8044401,141.360022 77.6579992,255.953649 C77.9188045,258.195654 77.6528459,260.467495 76.8812137,262.589015 C76.3460948,263.795445 74.4127619,264.881232 71.7026435,266.432357 C70.5460962,267.75943 69.4413345,269.413963 70.9431199,269.689718 C73.4806193,270.137821 87.8425206,268.259237 88.8782346,265.708499 C89.1935602,264.908435 89.6693726,264.181178 90.2764485,263.571394 L90.2764485,263.48522 C86.9087946,259.603856 85.5035664,254.398099 86.4615685,249.352753 C89.499663,232.721252 97.2847802,181.361798 83.0091884,155.492489 C76.6050233,143.824586 81.1103793,144.686322 94.1949,142.152819 C90.6044247,162.834478 97.9579943,195.873429 124.627631,255.901945 L132.395486,254.626576 C132.395486,254.626576 150.969291,188.514205 129.70263,160.02522 C118.53418,145.099955 130.928224,143.927995 149.605601,140.153592 C186.804997,132.708195 151.677029,86.2261652 150.50322,77.315817 Z" fill="#D1ADA3"></path>
                                    <path d="M144.348574,19.4701655 L143.676281,30.9042053 C143.555613,32.7925543 138.590991,37.296873 135.815629,34.6982276 C134.988192,33.9359583 136.315539,31.4412587 137.280882,29.5009368 L140.211388,19.8339759 L144.348574,19.4701655 Z" fill="#D1ADA3"></path>
                                    <path d="M138.38191,25.7508641 C140.793698,25.157687 143.406469,21.6335173 143.406469,21.6335173 L139.621301,21.3543751 L138.38191,25.7508641 Z" fill="#2D2D2D"></path>
                                    <path d="M144.895637,12.2829085 L145.253882,16.6703427 C145.626049,20.188735 143.133997,23.3620084 139.641383,23.8170617 C138.018431,24.0360182 136.382148,23.5230014 135.171225,22.415553 C133.960303,21.3081046 133.298619,19.7195157 133.363573,18.0756927 C133.210039,14.493764 135.939522,11.5973719 136.963078,10.0549145 C139.300198,6.49012419 144.110911,7.26135287 144.895637,12.2829085 Z" fill="#D1ADA3"></path>
                                    <path d="M144.184625,15.4204494 C144.441622,15.1290884 144.664817,14.8102949 144.850052,14.4700051 C145.235299,13.8306153 145.935749,12.9492942 146.601176,13.9688617 C147.616829,15.4377302 145.445434,18.7729258 143.676798,18.133536 C142.398478,17.6496734 143.519197,16.1635241 144.184625,15.4204494 Z" fill="#8B61C2"></path>
                                    <path d="M135.516557,13.920205 C135.474181,13.5481544 135.474181,13.1725914 135.516557,12.8005408 C135.618188,12.0819503 135.60125,11.0124203 134.449423,11.3800712 C132.75556,11.9315476 132.484541,15.7417483 134.229221,16.2765133 C135.516557,16.6608756 135.60125,14.8727552 135.516557,13.920205 Z" fill="#8B61C2"></path>
                                    <path d="M139.159254,22.3465206 C137.527418,22.2485567 135.957186,21.7035115 134.629447,20.7741736 C133.920172,19.9226604 133.384141,18.9471673 133.050089,17.8999909 L133.050089,18.1028744 C132.968068,19.7331497 133.634316,21.3145641 134.868335,22.4186864 C136.102355,23.5228087 137.7764,24.0353396 139.436944,23.8174259 C141.555228,23.5704903 143.402486,22.2987529 144.348574,20.4360345 C142.90257,21.6464024 141.065585,22.3227016 139.159254,22.3465206 L139.159254,22.3465206 Z" fill="url(#linearGradient-2)"></path>
                                    <path d="M73.3766799,126.556076 L80.6151597,146.340276 C81.5012797,145.306425 82.7169411,144.614963 84.0538674,144.384358 C82.2485459,139.987869 77.1420649,127.923488 73.3766799,126.556076 Z" fill="#2D2D2D"></path>
                                    <path d="M115.184822,130.660998 C111.261125,130.435817 109.804732,131.977442 109.804732,131.977442 C114.175688,135.7506 118.190848,139.925692 121.798563,144.449014 C123.511968,146.856721 124.214464,149.091211 125.533785,150.736765 C125.740477,148.601723 127.041825,146.733577 128.960594,145.817423 L129.902967,141.660232 C129.902967,141.660232 119.091384,130.868858 115.184822,130.660998 Z" fill="#2D2D2D"></path>
                                    <path d="M137.439805,66.8667838 C141.949923,68.4233244 146.332304,70.3206825 150.548166,72.5420683 C150.651247,71.8454017 150.788687,71.1317431 150.943307,70.4350765 L141.081971,64.0631253 L137.439805,66.8667838 Z" fill="#2D2D2D"></path>
                                    <path d="M118.695191,76.9385573 C118.539897,77.2996707 118.367348,77.6607842 118.194799,78.0218976 C115.00264,84.4187638 92.001844,95.4069293 77.8528172,104.727095 C70.3986958,109.62792 63.6347708,114.25361 58.3030033,119.979838 C75.8857574,117.056538 82.2010547,144.931055 82.2010547,144.931055 C84.4269382,143.778931 88.533607,143.314643 94.2794922,142.196911 C94.2794922,142.110931 94.2794922,142.024952 94.2794922,141.938973 C94.6429487,138.686616 96.343838,135.730214 98.9766726,133.774567 C101.609507,131.818919 104.93838,131.039256 108.169695,131.621446 C120.455192,133.85691 126.70147,147.596416 126.70147,147.596416 L126.70147,147.596416 C129.807353,143.830519 138.624613,142.523632 149.633246,140.288168 C184.332871,133.289446 156.000308,92.363259 151.151678,79.7414853 C140.253721,80.9866187 129.215773,80.0333865 118.695191,76.9385573 L118.695191,76.9385573 Z" fill="#FF6687"></path>
                                    <path d="M145.874624,40.7098885 C129.619905,47.4019758 131.875592,37.1064569 122.026334,38.8223767 L120.821006,40.1264757 C113.434062,48.3285725 121.303137,54.6088391 121.217042,65.7108403 C131.293274,65.2999562 141.351844,66.874351 150.816472,70.3438238 C152.328605,65.2751669 154.216406,60.3254239 156.464298,55.5354358 C159.443182,48.2256173 153.192691,37.7070288 145.874624,40.7098885 Z" fill="#FFBC4F"></path>
                                    <path d="M160.992425,100.177142 C160.07534,98.1261014 159.123648,96.125913 158.171956,94.2104783 L137.75384,94.2104783 C137.75384,94.2104783 146.405584,99.838127 160.992425,100.177142 Z" fill="#2D2D2D"></path>
                                    <path d="M141.226897,83.7786166 L126.266281,83.7786166 L128.332188,67.720402 C128.431314,66.953815 128.195167,66.1817064 127.684167,65.6016266 C127.173167,65.0215467 126.436892,64.6897757 125.663724,64.6911951 L83.9151703,64.6911951 C83.1089758,64.6906254 82.3451677,65.0521499 81.8346548,65.6759463 C81.3241419,66.2997427 81.1209323,67.1198182 81.2811378,67.9097272 L86.2565325,92.108923 C86.4960764,93.3243477 87.5653859,94.1983508 88.8044855,94.1914996 L122.650942,94.1914996 C122.839471,94.2168046 123.030538,94.2168046 123.219067,94.1914996 L123.219067,94.1914996 L123.408442,94.1914996 L123.632248,94.1914996 L141.175249,88.5289566 C142.302058,88.1527492 143.063763,87.1004873 143.068998,85.9128274 L143.068998,85.9128274 C143.155441,85.3760734 143.000241,84.8285617 142.644969,84.416953 C142.289697,84.0053444 141.770662,83.771704 141.226897,83.7786166 L141.226897,83.7786166 Z" fill="#2D2D2D"></path>
                                    <path d="M106.036312,58.0964616 C106.036312,58.0964616 113.426687,66.0722877 115.719072,74.4262779 C115.719072,74.4262779 117.070553,61.3968035 106.036312,58.0964616 Z" fill="#2D2D2D"></path>
                                    <polygon fill="#FFFFFF" points="124.878408 89.4999544 139.00998 84.7894305 126.028852 84.7894305"></polygon>
                                    <path d="M135.896133,16.9578861 C137.289019,17.5436809 138.764073,17.8914584 140.264034,17.9877177 C140.264034,17.9877177 140.420652,19.4692298 138.019177,19.4692298 C137.396967,19.488198 136.799046,19.2179874 136.388427,18.7322672 C135.977808,18.246547 135.797306,17.5959624 135.896133,16.9578861 L135.896133,16.9578861 Z" fill="#FFFFFF"></path>
                                    <path d="M133.103923,8.46976825 C133.103923,8.46976825 129.384592,4.07700932 130.889624,2.28925859 C132.394656,0.501507862 144.728996,0.109905321 146.285925,3.5151448 C147.280862,5.24845618 148.004055,7.11974786 148.431028,9.06568516 C148.431028,9.71268066 141.788129,2.45952056 133.103923,8.46976825 Z" fill="#5BD8C0"></path>
                                    <path d="M143.796891,29.2052483 C143.796891,29.2052483 171.681257,31.2202125 191.4852,60.4458049 C215.277556,95.5612928 178.449475,103.328377 137.75384,94.080208 L140.499112,89.3786248 C140.499112,89.3786248 174.322934,79.7515734 174.167541,74.3955573 C174.04668,70.6756234 156.659958,55.5720025 156.659958,55.5720025 L156.470034,51.352633 C156.284358,47.3822337 154.879997,43.5646384 152.447088,40.416716 L143.796891,29.2052483 Z" fill="#D1ADA3"></path>
                                    <path d="M191.469405,60.4620137 C184.323288,49.6921801 174.465048,40.9726379 162.876634,35.1719119 C171.69418,40.8016119 179.243365,48.1875225 185.048147,56.8638985 C201.975344,81.7924672 188.26743,95.2380556 164.27858,97.6310605 C192.092492,98.3541267 209.86778,87.5253493 191.469405,60.4620137 Z" fill="url(#linearGradient-3)" style="mix-blend-mode: multiply;"></path>
                                    <path d="M105.713692,76.9950833 C105.602381,78.3820282 104.444369,79.4508367 103.052981,79.4508367 C101.661592,79.4508367 100.50358,78.3820282 100.392269,76.9950833 C100.31189,75.9935544 100.800711,75.0317304 101.65712,74.506309 C102.513529,73.9808876 103.592432,73.9808876 104.448841,74.506309 C105.305251,75.0317304 105.794071,75.9935544 105.713692,76.9950833 L105.713692,76.9950833 Z" fill="#FFFFFF"></path>
                                    <path d="M140.518564,89.493181 C140.518564,89.493181 136.838036,85.4152242 133.379021,84.8622809 C130.260796,84.3611761 130.78902,86.5902287 132.680402,87.1258925 C133.73685,87.3850847 135.185206,89.4067836 134.230995,90.581788 L129.902967,91.9987052 C132.314155,93.3958017 135.032776,94.1563292 137.809287,94.2104783 C137.809287,94.2104783 141.063828,91.6358362 140.518564,89.493181 Z" fill="#D1ADA3"></path>
                                    <path d="M124.798486,255.957353 C125.050355,258.198743 124.784165,260.467838 124.020293,262.590938 C123.466911,263.797045 121.530074,264.88254 118.832337,266.433249 C117.673693,267.759966 116.566929,269.414054 118.071437,269.689736 C120.613535,270.137718 135.001466,268.259638 136.039057,265.709585 C136.354954,264.909736 136.831629,264.182674 137.439805,263.573054 C135.17009,261.002825 133.493634,257.967982 132.52854,254.682326 L124.798486,255.957353 Z" fill="#AC8F86"></path>
                                    <path d="M135.914393,265.866581 C134.876815,268.386512 120.489067,270.242408 117.947001,269.799717 C116.442513,269.527292 117.549263,267.892742 118.707891,266.581696 C114.574873,269.408106 109.473447,273.017739 109.490697,274.533103 C109.490697,277.070061 135.672291,273.579615 139.68426,270.599966 C141.794002,269.033522 139.839896,266.530617 137.315123,263.789339 C136.710855,264.381774 136.23441,265.088329 135.914393,265.866581 L135.914393,265.866581 Z" fill="#2D2D2D"></path>
                                    <path d="M89.1231887,265.866581 C88.0856108,268.386512 73.6978628,270.242408 71.1557967,269.799717 C69.6513086,269.527292 70.7580585,267.892742 71.9166872,266.581696 C67.7836683,269.408106 62.6822432,273.017739 62.6994923,274.533103 C62.6994923,277.070061 88.8810872,273.579615 92.8930554,270.599966 C95.0027973,269.033522 93.0486921,266.530617 90.523919,263.789339 C89.919651,264.381774 89.4432057,265.088329 89.1231887,265.866581 L89.1231887,265.866581 Z" fill="#2D2D2D"></path>
                                    <path d="M94.223966,142.151283 C94.223966,142.151283 94.5001448,134.259335 96.9684928,129.882578 C99.4368407,125.505821 112.002976,108.86036 112.002976,108.86036 L111.32979,104.259596 C111.32979,104.259596 81.985793,136.206475 70.5416341,140.445381 C61.9110467,143.736565 52.659057,146.40742 46.8075188,144.925526 C46.4808456,147.716155 46.336697,150.525069 46.3759894,153.334413 L46.3759894,153.334413 C46.3759894,154.081104 46.3759894,154.839283 46.3759894,155.608949 L46.3759894,155.608949 C46.3759894,156.367127 46.3759894,157.159768 46.4795565,157.952409 L46.4795565,157.952409 C46.4795565,158.727819 46.5831235,159.537691 46.6521682,160.347563 L46.6521682,160.347563 C46.6521682,161.174667 46.8075188,162.070696 46.8938247,162.846106 L46.8938247,162.846106 C46.9973917,163.673209 47.1009588,164.569238 47.221787,165.396342 L47.221787,165.482499 C47.325354,166.326834 47.4634434,167.205631 47.6015328,168.084429 L47.6015328,168.342899 C47.7396222,169.204465 47.8949728,170.066031 48.0503234,170.996523 C48.0503234,170.996523 48.0503234,171.099911 48.0503234,171.151605 C48.2056739,172.047634 48.3782857,172.874738 48.5508974,173.856923 L48.5508974,174.063699 C48.7235092,174.976959 48.9133821,175.89022 49.1205162,176.837943 L49.1205162,177.06195 C49.3276503,177.992442 49.5347844,178.940164 49.7591797,179.905119 C49.7591797,179.991275 49.7591797,180.077432 49.7591797,180.18082 C49.983575,181.145774 50.2252314,182.110729 50.4668878,183.110145 C50.4767356,183.201783 50.4767356,183.294209 50.4668878,183.385847 C50.7258055,184.368032 50.9847231,185.367449 51.2609019,186.366866 C51.2509906,186.475774 51.2509906,186.585354 51.2609019,186.694261 C51.5198195,187.676447 51.7959983,188.675864 52.0721771,189.675281 L52.2102665,190.123295 C52.4864453,191.105481 52.7798853,192.122129 53.0733252,193.121546 C53.0733252,193.311091 53.1768923,193.483404 53.2286758,193.655717 C53.539377,194.655134 53.8500781,195.654551 54.1607793,196.688431 L54.3506522,197.291527 C54.6786145,198.325407 55.0065768,199.376518 55.3518003,200.427628 L56.0595085,201.082419 C56.3874708,202.13353 56.7499555,203.184641 57.1124401,204.252983 C57.198746,204.494221 57.2677907,204.718229 57.3368354,204.959467 L58.4415506,208.1128 C58.4415506,208.388501 58.6314235,208.664202 58.7177294,208.957135 C59.0974752,209.991015 59.4772211,211.059357 59.8569669,212.127699 C59.9777952,212.437863 60.0813622,212.748027 60.1849293,213.058191 C60.5646751,214.074839 60.9444209,215.12595 61.341428,216.159829 L61.7556962,217.297097 L62.9294561,220.398736 L63.3955078,221.656622 L64.6210512,224.809955 C64.8109241,225.25797 64.9662747,225.688753 65.1561476,226.153999 C65.5704158,227.222341 66.0019452,228.307914 66.4334745,229.393488 L66.9858321,230.771994 L68.3667261,234.218259 C68.556599,234.666274 68.7292108,235.114288 68.9190837,235.579534 C69.4196578,236.768496 69.9202318,237.99192 70.4380671,239.198113 L70.9559023,240.473231 L72.5266692,244.160735 L73.096288,245.504778 L74.6497937,249.106125 C74.8914502,249.623065 75.0985843,250.140005 75.3229796,250.656945 L77.6704993,255.964193 L89.28727,262.219165 L89.28727,262.219165 C86.6451245,258.491114 85.6299459,253.852993 86.4736985,249.364595 C89.3563147,233.5807 96.5197022,186.487485 85.0582821,159.623848 C84.9547151,159.417072 84.8684092,159.193064 84.7648422,158.986289 L84.454141,158.297035 L84.0226117,157.366544 L83.7809552,156.901298 C83.5565599,156.418821 83.3149035,155.970806 83.0559859,155.522792 C76.6348288,143.822721 81.1399955,144.684288 94.223966,142.151283 Z" fill="url(#linearGradient-4)" style="mix-blend-mode: multiply;"></path>
                                    <path d="M96.9292995,130.01046 C96.9292995,130.01046 112.746356,111.251726 118.843049,107.544602 C124.939743,103.837478 125.506478,103.631526 125.506478,103.631526 L111.217889,104.489657 L96.9292995,130.01046 Z" fill="#2D2D2D"></path>
                                </g>
                            </g>
                        </g>
                    </g>
                </g>
            </g>
        </g>
    </g>
</svg>