<?xml version="1.0" encoding="UTF-8"?>
<svg width="37px" height="36px" viewBox="0 0 37 36" version="1.1" xmlns="http://www.w3.org/2000/svg" xmlns:xlink="http://www.w3.org/1999/xlink">
    <!-- Generator: Sketch 63.1 (92452) - https://sketch.com -->
    <title>GitHub Logo</title>
    <desc>Created with Sketch.</desc>
    <g id="Page-1" stroke="none" stroke-width="1" fill="none" fill-rule="evenodd">
        <g id="Personal-Site---Content" transform="translate(-122.000000, -971.000000)" fill="#FFFFFF" fill-rule="nonzero">
            <path d="M140.455038,971 C130.263315,971 122,979.263315 122,989.455038 C122,997.610218 127.287368,1004.52635 134.621372,1006.96613 C135.543907,1007.13511 135.880712,1006.56513 135.880712,1006.07852 C135.880712,1005.6392 135.863806,1004.18392 135.854795,1002.643 C130.722889,1003.75812 129.638151,1000.46678 129.638151,1000.46678 C128.79787,998.335624 127.589209,997.767915 127.589209,997.767915 C125.911999,996.623486 127.716448,996.646014 127.716448,996.646014 C129.569377,996.774407 130.544899,998.547388 130.544899,998.547388 C132.191723,1001.36791 134.865793,1000.55239 135.915603,1000.0793 C136.083357,998.889815 136.560953,998.074297 137.087065,997.614724 C132.990335,997.14841 128.680724,995.564665 128.680724,988.493069 C128.680724,986.476784 129.400506,984.832267 130.578709,983.54027 C130.39059,983.071685 129.755297,981.193957 130.761169,978.653939 C130.761169,978.653939 132.308869,978.15832 135.836737,980.546301 C137.307805,980.135172 138.885927,979.932419 140.455002,979.925642 C142.022959,979.932419 143.602162,980.137406 145.075538,980.548536 C148.596701,978.15832 150.146636,978.656173 150.146636,978.656173 C151.155896,981.198463 150.520603,983.07392 150.331367,983.54027 C151.514075,984.832267 152.228235,986.47682 152.228235,988.493069 C152.228235,995.582687 147.911846,997.143868 143.800482,997.601207 C144.46508,998.173421 145.053046,999.295322 145.053046,1001.01647 C145.053046,1003.48332 145.028247,1005.47253 145.028247,1006.08079 C145.028247,1006.57191 145.363898,1007.14635 146.298833,1006.96613 C153.627249,1004.52185 158.910076,997.605712 158.910076,989.455038 C158.910076,979.263315 150.64676,971 140.455038,971 Z" id="GitHub-Logo"></path>
        </g>
    </g>
</svg>