<?xml version="1.0" encoding="UTF-8"?>
<svg width="36px" height="36px" viewBox="0 0 36 36" version="1.1" xmlns="http://www.w3.org/2000/svg" xmlns:xlink="http://www.w3.org/1999/xlink">
    <!-- Generator: Sketch 63.1 (92452) - https://sketch.com -->
    <title>instagram.com/ifdouglas</title>
    <g id="instagram" stroke="none" stroke-width="1" fill="none" fill-rule="evenodd">
        <g id="instagram---Content" transform="translate(-56.000000, -971.000000)" fill="#FFFFFF" fill-rule="nonzero">
            <g id="iconfinder_38-instagram_1161953" transform="translate(56.000000, 971.000000)">
                <path d="M17.7882353,8.96470588 C12.8470588,8.96470588 8.75294118,12.9882353 8.75294118,18 C8.75294118,23.0117647 12.7764706,27.0352941 17.7882353,27.0352941 C22.8,27.0352941 26.8235294,22.9411765 26.8235294,18 C26.8235294,13.0588235 22.7294118,8.96470588 17.7882353,8.96470588 Z M17.7882353,23.7882353 C14.6117647,23.7882353 12,21.1764706 12,18 C12,14.8235294 14.6117647,12.2117647 17.7882353,12.2117647 C20.9647059,12.2117647 23.5764706,14.8235294 23.5764706,18 C23.5764706,21.1764706 20.9647059,23.7882353 17.7882353,23.7882353 Z" id="Shape"></path>
                <circle id="Oval" cx="27.1764706" cy="8.75294118" r="2.04705882"></circle>
                <path d="M32.4705882,3.45882353 C30.6352941,1.55294118 28.0235294,0.564705882 25.0588235,0.564705882 L10.5176471,0.564705882 C4.37647059,0.564705882 0.282352941,4.65882353 0.282352941,10.8 L0.282352941,25.2705882 C0.282352941,28.3058824 1.27058824,30.9176471 3.24705882,32.8235294 C5.15294118,34.6588235 7.69411765,35.5764706 10.5882353,35.5764706 L24.9882353,35.5764706 C28.0235294,35.5764706 30.5647059,34.5882353 32.4,32.8235294 C34.3058824,30.9882353 35.2941176,28.3764706 35.2941176,25.3411765 L35.2941176,10.8 C35.2941176,7.83529412 34.3058824,5.29411765 32.4705882,3.45882353 Z M32.1882353,25.3411765 C32.1882353,27.5294118 31.4117647,29.2941176 30.1411765,30.4941176 C28.8705882,31.6941176 27.1058824,32.3294118 24.9882353,32.3294118 L10.5882353,32.3294118 C8.47058824,32.3294118 6.70588235,31.6941176 5.43529412,30.4941176 C4.16470588,29.2235294 3.52941176,27.4588235 3.52941176,25.2705882 L3.52941176,10.8 C3.52941176,8.68235294 4.16470588,6.91764706 5.43529412,5.64705882 C6.63529412,4.44705882 8.47058824,3.81176471 10.5882353,3.81176471 L25.1294118,3.81176471 C27.2470588,3.81176471 29.0117647,4.44705882 30.2823529,5.71764706 C31.4823529,6.98823529 32.1882353,8.75294118 32.1882353,10.8 L32.1882353,25.3411765 L32.1882353,25.3411765 Z" id="Shape"></path>
            </g>
        </g>
    </g>
</svg>