<?xml version="1.0" encoding="UTF-8"?>
<svg width="49px" height="36px" viewBox="0 0 49 36" version="1.1" xmlns="http://www.w3.org/2000/svg" xmlns:xlink="http://www.w3.org/1999/xlink">
    <!-- Generator: Sketch 63.1 (92452) - https://sketch.com -->
    <title>YouTube Logo</title>
    <desc>Created with Sketch.</desc>
    <g id="Page-1" stroke="none" stroke-width="1" fill="none" fill-rule="evenodd">
        <g id="Personal-Site---Content" transform="translate(-254.000000, -971.000000)" fill="#FFFFFF" fill-rule="nonzero">
            <g id="YouTube-Logo" transform="translate(254.910076, 971.000000)">
                <path d="M24.3366784,0.000650091944 C26.1335283,0.00603656805 34.7987077,0.0560538462 40.791,0.5205 C41.7285,0.636 43.773,0.648 45.5985,2.685 C47.037,4.239 47.505,7.7685 47.505,7.7685 C47.505,7.7685 47.985,11.91 47.985,16.053 L47.9842675,20.2174263 C47.9634298,24.2641108 47.505,28.2195 47.505,28.2195 C47.505,28.2195 47.0355,31.7475 45.5985,33.2985 C43.773,35.3355 41.7285,35.3475 40.791,35.4675 C34.2821308,35.9661692 24.6098041,35.9984222 24.0207463,35.9999349 L23.9837175,35.9999132 C23.6106369,35.9961973 11.4564462,35.8724538 7.677,35.4855 C6.609,35.2725 4.2135,35.334 2.3865,33.297 C0.948,31.746 0.48,28.218 0.48,28.218 C0.48,28.218 -2.48689958e-14,24.078 -2.48689958e-14,19.9335 L0.000732531931,15.7691736 C0.0215702479,11.7238892 0.48,7.7685 0.48,7.7685 C0.48,7.7685 0.9495,4.239 2.3865,2.685 C4.2135,0.648 6.2565,0.636 7.194,0.5205 C13.1849538,0.0560538462 21.8499891,0.00603656805 23.6468235,0.000650091944 Z M18,9 L18,27 L33,18 L18,9 Z" id="Combined-Shape"></path>
            </g>
        </g>
    </g>
</svg>