<?xml version="1.0" encoding="UTF-8"?>
<svg width="310px" height="300px" viewBox="0 0 310 300" version="1.1" xmlns="http://www.w3.org/2000/svg" xmlns:xlink="http://www.w3.org/1999/xlink">
    <!-- Generator: Sketch 63.1 (92452) - https://sketch.com -->
    <title>Formatagram Slide 3</title>
    <defs>
        <linearGradient x1="50.0001013%" y1="74.46371%" x2="50.0001013%" y2="24.3656824%" id="linearGradient-1">
            <stop stop-color="#FFFFFF" stop-opacity="0" offset="0%"></stop>
            <stop stop-color="#D2C4FF" stop-opacity="0.5" offset="100%"></stop>
        </linearGradient>
        <linearGradient x1="3.45125941e-14%" y1="49.9976604%" x2="99.9857873%" y2="49.9976604%" id="linearGradient-2">
            <stop stop-color="#33CC9C" offset="0%"></stop>
            <stop stop-color="#43638F" offset="100%"></stop>
        </linearGradient>
        <linearGradient x1="0.00880675479%" y1="49.996415%" x2="100.052333%" y2="49.996415%" id="linearGradient-3">
            <stop stop-color="#FFFFFF" offset="0%"></stop>
            <stop stop-color="#EAEAEA" offset="18%"></stop>
            <stop stop-color="#C8C8C8" offset="53%"></stop>
            <stop stop-color="#B3B3B3" offset="81%"></stop>
            <stop stop-color="#ABABAB" offset="100%"></stop>
        </linearGradient>
        <linearGradient x1="-7.85553648e-13%" y1="49.9608457%" x2="100.192143%" y2="49.9608457%" id="linearGradient-4">
            <stop stop-color="#FFFFFF" offset="0%"></stop>
            <stop stop-color="#D2C4FF" offset="100%"></stop>
        </linearGradient>
        <linearGradient x1="-6.71654501%" y1="46.3681623%" x2="98.9797683%" y2="52.4183788%" id="linearGradient-5">
            <stop stop-color="#33CC9C" offset="0%"></stop>
            <stop stop-color="#43638F" offset="100%"></stop>
        </linearGradient>
        <linearGradient x1="1.20309134e-14%" y1="50.0081749%" x2="100.000423%" y2="50.0081749%" id="linearGradient-6">
            <stop stop-color="#FFFFFF" offset="0%"></stop>
            <stop stop-color="#EAEAEA" offset="18%"></stop>
            <stop stop-color="#C8C8C8" offset="53%"></stop>
            <stop stop-color="#B3B3B3" offset="81%"></stop>
            <stop stop-color="#ABABAB" offset="100%"></stop>
        </linearGradient>
        <linearGradient x1="0%" y1="49.9971336%" x2="99.9920628%" y2="49.9971336%" id="linearGradient-7">
            <stop stop-color="#FFFFFF" offset="0%"></stop>
            <stop stop-color="#D2C4FF" offset="100%"></stop>
        </linearGradient>
        <linearGradient x1="0%" y1="49.9915001%" x2="99.9920628%" y2="49.9915001%" id="linearGradient-8">
            <stop stop-color="#FFFFFF" offset="0%"></stop>
            <stop stop-color="#F0F3F4" offset="26%"></stop>
            <stop stop-color="#DBE1E5" offset="71%"></stop>
            <stop stop-color="#D3DBE0" offset="100%"></stop>
        </linearGradient>
        <linearGradient x1="144.338008%" y1="14.0025399%" x2="69.0533225%" y2="72.0803683%" id="linearGradient-9">
            <stop stop-color="#FFFFFF" offset="0%"></stop>
            <stop stop-color="#F2EEF6" offset="9%"></stop>
            <stop stop-color="#CBBFDB" offset="39%"></stop>
            <stop stop-color="#AF9CC8" offset="65%"></stop>
            <stop stop-color="#9E87BC" offset="86%"></stop>
            <stop stop-color="#987FB8" offset="100%"></stop>
        </linearGradient>
        <linearGradient x1="-0.278723374%" y1="50.1109102%" x2="99.9846627%" y2="50.1109102%" id="linearGradient-10">
            <stop stop-color="#FFFFFF" offset="0%"></stop>
            <stop stop-color="#D2C4FF" offset="100%"></stop>
        </linearGradient>
        <linearGradient x1="-0.0330796268%" y1="50.0021157%" x2="99.9666322%" y2="50.0021157%" id="linearGradient-11">
            <stop stop-color="#FFFFFF" offset="0%"></stop>
            <stop stop-color="#EAEAEA" offset="18%"></stop>
            <stop stop-color="#C8C8C8" offset="53%"></stop>
            <stop stop-color="#B3B3B3" offset="81%"></stop>
            <stop stop-color="#ABABAB" offset="100%"></stop>
        </linearGradient>
        <linearGradient x1="36.567124%" y1="13.0324824%" x2="59.4687641%" y2="75.986958%" id="linearGradient-12">
            <stop stop-color="#F3EA3A" offset="0%"></stop>
            <stop stop-color="#F1B457" offset="100%"></stop>
        </linearGradient>
    </defs>
    <g id="Page-1" stroke="none" stroke-width="1" fill="none" fill-rule="evenodd">
        <g id="Portuguese-Slide-3-iPhone-6,5" transform="translate(-152.000000, -626.000000)">
            <g id="Group-3" transform="translate(61.992771, 264.992771)">
                <g id="Image/Slide3" transform="translate(90.342433, 361.051431)">
                    <g id="Group-4">
                        <path d="M36.2018155,286.754317 C36.2018155,286.754317 -29.3759661,211.844406 15.9909025,145.683622 C61.357771,79.5228372 72.6718934,-69.6749842 208.214062,37.7729895 C217.290066,44.9677855 292.287024,114.259815 301.532792,134.049003 C337.154138,210.291183 234.967192,277.949514 201.084703,292.564774 C156.484649,311.707199 36.2018155,286.754317 36.2018155,286.754317 Z" id="Path" fill="url(#linearGradient-1)" fill-rule="nonzero" style="mix-blend-mode: multiply;"></path>
                        <g id="Group" transform="translate(23.876713, 1.299824)" fill-rule="nonzero">
                            <g id="Asset-1">
                                <path d="M199.936017,242.098422 C199.936017,242.098422 183.620821,183.951093 138.211155,187.028689 C92.8014883,190.106285 94.6463161,274.45165 94.6463161,274.45165 L104.869737,274.45165 C104.869737,274.45165 131.024013,244.541264 138.30724,227.306726 C138.70525,226.342953 139.610353,225.684632 140.649076,225.603406 C141.687799,225.52218 142.684063,226.031817 143.22678,226.922027 C148.549877,235.539295 159.503542,252.350664 168.208823,259.506074 C180.277071,269.335146 210.486125,265.642031 219.748698,259.910009 C229.011271,254.177986 199.936017,242.098422 199.936017,242.098422 Z" id="Path" fill="#D1ADA3"></path>
                                <path d="M148.009787,234.384828 L152.210912,220.916988 L144.466904,228.795484 C145.434905,230.455118 146.654586,232.362744 148.009787,234.384828 Z" id="Path" fill="#2D2D2D"></path>
                                <path d="M199.864164,242.196395 C199.864164,242.196395 189.391439,204.892366 161.874113,191.624438 C160.798017,197.681535 152.266109,224.736571 142.446728,237.889126 C148.211531,246.907471 161.028609,253.733724 168.215397,259.598533 C180.28305,269.424491 210.490617,265.732546 219.752734,260.002339 C229.01485,254.272133 199.864164,242.196395 199.864164,242.196395 Z" id="Path" fill="url(#linearGradient-2)"></path>
                                <path d="M207.658821,193.98131 C207.658821,193.98131 188.789533,207.992946 182.075308,220.730798 C175.361082,233.46865 191.317014,254.428206 205.555802,237.444403 C219.794591,220.460601 207.658821,193.98131 207.658821,193.98131 Z" id="Path" fill="#D1ADA3"></path>
                                <path d="M20.5608308,279.07622 C20.5608308,279.07622 15.8839483,276.972702 12.7983703,277.598072 C9.71279223,278.223442 14.4867054,284.590846 18.2903111,286.012141 C20.5150673,286.861773 22.8879778,287.280157 25.2765255,287.243931 L20.5608308,279.07622 Z" id="Path" fill="#D1ADA3"></path>
                                <path d="M25.2765255,287.346338 C25.2765255,287.346338 20.895082,300.342413 17.16989,297.654237 C13.4446979,294.96606 0.43547793,274.002153 0.0301461514,269.863522 C-0.375185628,265.72489 20.5283533,279.011057 20.5283533,279.011057 C20.5283533,279.011057 16.6680506,278.25682 16.2820203,279.262469 C15.2783416,282.1247 25.2765255,287.346338 25.2765255,287.346338 Z" id="Path" fill="#2D2D2D"></path>
                                <path d="M4.25091442,270.02879 C7.23241957,274.477495 7.00159336,282.020951 12.195183,289.003484 C14.3200828,292.134171 16.9157709,294.91391 19.8893898,297.243259 C19.2144981,298.084123 18.0132658,298.268662 17.1194753,297.668787 C13.4070205,294.999564 0.442282046,274.013282 0.0383361877,269.874052 C-0.154018983,268.616809 1.65411962,268.945627 4.25091442,270.02879 Z" id="Path" fill="#EFEFEF"></path>
                                <path d="M162.136152,217.997999 C156.201439,214.512393 152.033695,204.960676 143.275672,207.079 C134.517648,209.197325 125.125821,227.761548 114.293529,223.332324 C110.562056,221.85075 107.151258,219.660177 104.24869,216.881064 C93.9541716,242.281698 94.6455945,274.788346 94.6455945,274.788346 L104.863288,274.788346 C104.863288,274.788346 131.002915,244.842944 138.282062,227.58823 C138.67985,226.623329 139.584445,225.964238 140.622587,225.882916 C141.660728,225.801595 142.656434,226.311829 143.198847,227.203081 C144.101538,228.647392 145.119466,230.342052 146.329456,232.171514 C145.162708,234.21414 143.880193,236.188058 142.488218,238.083564 C148.250075,247.115328 161.060605,253.951738 168.243721,259.825274 C176.233497,266.334306 192.213048,266.912031 204.735485,264.889994 C193.557482,251.756384 166.880081,220.732563 162.136152,217.997999 Z" id="Path" fill="url(#linearGradient-3)" style="mix-blend-mode: multiply;"></path>
                                <path d="M250.365361,251.715585 C250.365361,251.715585 256.263154,273.207138 246.965006,282.844606 C232.691195,297.686306 199.936355,296.33706 180.148974,292.270049 C163.089561,288.800561 141.304231,284.058927 132.50557,285.90932 C123.706909,287.759714 114.716138,292.250774 106.954873,292.482073 C99.1936092,292.713373 44.115529,290.55458 25.2887,287.297116 L20.5627818,278.989619 C20.5627818,278.989619 122.900045,248.149722 155.040131,246.511353 C187.180218,244.872983 201.050596,249.595343 212.500382,250.616914 C223.950168,251.638486 250.365361,251.715585 250.365361,251.715585 Z" id="Path" fill="#D1ADA3"></path>
                                <path d="M148.118891,277.988599 C147.810017,277.485926 142.925938,268.727818 142.925938,268.727818 L137.732984,285.606027 C141.565603,285.682439 145.389363,286.00533 149.180648,286.572705 C148.813859,282.957327 148.311938,278.220602 148.118891,277.988599 Z" id="Path" fill="#2D2D2D"></path>
                                <path d="M191.267646,213.846373 L195.992022,243.475619 C199.739384,242.613999 203.05679,240.43489 205.345525,237.33157 L205.745573,236.814781 L191.267646,213.846373 Z" id="Path" fill="#2D2D2D"></path>
                                <path d="M212.467862,218.896812 C212.63353,210.460223 211.027648,202.083772 207.755763,194.318006 C207.755763,194.318006 203.673216,197.35908 198.674957,201.920691 C201.640926,208.749475 206.412884,214.622736 212.467862,218.896812 Z" id="Path" fill="url(#linearGradient-4)"></path>
                                <path d="M250.362918,251.731321 C250.362918,251.731321 223.874258,251.731321 212.409305,250.632835 C200.944351,249.534349 187.017125,244.851331 154.872934,246.527967 C149.573334,246.900251 144.299964,247.582346 139.079768,248.570765 C142.399442,260.670333 143.609868,273.253101 142.657757,285.765107 C153.218595,286.670876 167.838335,289.792888 180.053512,292.278935 C199.867107,296.325988 232.665339,297.694277 246.958058,282.855083 C256.268524,273.219244 250.362918,251.731321 250.362918,251.731321 Z" id="Path" fill="url(#linearGradient-5)"></path>
                                <path d="M250.189443,278.305602 L221.233588,272.094778 C226.696795,278.131317 232.70637,283.653995 239.186218,288.592881 C242.14887,287.118203 244.848644,285.169481 247.178034,282.824314 C248.437558,281.503621 249.456581,279.974544 250.189443,278.305602 L250.189443,278.305602 Z" id="Path" fill="#2D2D2D"></path>
                                <path d="M106.947425,292.501699 C114.63229,292.271436 123.70043,287.800496 132.4996,285.958391 C141.29877,284.116287 163.085361,288.836679 180.145761,292.290625 C199.934287,296.320228 232.691023,297.682617 246.965659,282.907406 C253.228824,276.440853 252.594823,264.639873 251.518942,257.616851 L229.90526,257.616851 C229.90526,257.616851 186.908442,279.702913 160.453295,278.628352 C133.998149,277.553791 110.002159,269.360265 103.738994,266.366846 C97.4758292,263.373426 25.2765255,287.33997 25.2765255,287.33997 C44.104444,290.602029 99.1664994,292.712774 106.947425,292.501699 Z" id="Path" fill="url(#linearGradient-6)" style="mix-blend-mode: multiply;"></path>
                                <path d="M200.021741,242.143278 C201.173394,235.321165 202.716984,228.571428 204.644801,221.927773 C205.6469,217.944229 205.88773,213.806456 205.354565,209.733073 C205.143554,208.15584 204.951726,206.347793 204.836629,204.424339 C204.354958,196.00673 210.118436,188.514499 218.360517,186.843967 C231.424017,184.208834 250.35746,190.229246 256.131488,203.520315 C260.965559,214.695585 262.020614,252.99156 254.520132,282.747398 C246.789455,286.267319 200.021741,269.20628 200.021741,242.143278 Z" id="Path" fill="url(#linearGradient-7)"></path>
                                <path d="M224.911154,178.493294 L230.649955,187.870017 C230.98179,189.337512 223.79853,195.131259 221.007208,193.778114 C220.18738,193.377888 220.070261,191.872276 220.382577,190.271372 L222.432149,181.142409 L224.911154,178.493294 Z" id="Path" fill="#D1ADA3"></path>
                                <path d="M221.870455,183.1156 C223.431204,182.466991 225.570008,181.523558 225.570008,181.523558 C225.76475,183.381813 225.254528,185.245595 224.144139,186.732091 C223.245907,187.946307 221.989832,188.834922 220.560196,189.267566 L221.870455,183.1156 Z" id="Path" fill="#2D2D2D"></path>
                                <path d="M221.858047,175.288059 L225.436534,180.528182 C226.479523,182.341162 225.875993,184.647142 224.075153,185.729775 C222.69729,186.557209 221.147965,187.064396 219.543699,187.213192 C217.832249,187.482905 216.509765,186.134343 215.887419,183.976646 C215.261804,181.654755 215.044697,179.243452 215.245625,176.848537 C215.517901,173.419339 219.271423,172.032248 221.858047,175.288059 Z" id="Path" fill="#D1ADA3"></path>
                                <path d="M240.363211,189.267566 C237.735164,191.96316 227.740916,198.163027 225.688354,209.368998 C222.983576,224.137005 231.826856,244.02664 228.911068,249.071253 C226.378935,253.538238 209.095215,235.920603 201.479636,234.264738 C200.865785,236.921824 200.347849,239.57891 200.021741,242.101216 C200.021741,269.191939 246.789455,286.270455 254.520132,282.746928 C262.020614,252.96061 260.965559,214.625407 256.131488,203.438691 C253.369162,196.969264 247.288209,192.117194 240.363211,189.267566 Z" id="Path" fill="url(#linearGradient-8)" style="mix-blend-mode: multiply;"></path>
                                <path d="M215.509757,182.937422 C215.509757,182.937422 216.540046,183.987913 217.529932,182.45258 L215.509757,182.937422 Z" id="Path" fill="#FFFFFF"></path>
                                <path d="M224.685149,183.172896 C225.074134,182.340667 225.21652,181.41979 225.096351,180.51347 L225.096351,180.627446 C226.14646,182.415086 225.53881,184.688836 223.725676,185.756338 C222.338408,186.572208 220.778506,187.072306 219.163288,187.219023 C218.133736,187.366436 217.107659,186.931403 216.519844,186.098265 C216.950628,186.060273 222.120029,186.725129 224.685149,183.172896 Z" id="Path" fill="url(#linearGradient-9)" style="mix-blend-mode: multiply;"></path>
                                <path d="M218.171285,172.372848 C218.171285,172.372848 209.083739,169.967788 211.560429,174.681704 C212.62731,176.605752 216.151831,177.106004 218.552315,177.125244 C219.71334,177.115666 220.806932,177.675059 221.48624,178.626001 C221.64672,178.859874 221.872081,179.040613 222.133989,179.145494 C223.124665,179.453342 223.677158,176.317145 223.543797,175.586007 C223.410437,174.854869 224.858348,170.929812 218.171285,172.372848 Z" id="Path" fill="#2D2D2D"></path>
                                <path d="M222.278347,178.221842 C222.255102,177.838167 222.179904,177.458707 222.054517,177.092356 C221.830687,176.395839 221.68825,175.209878 222.970186,175.511075 C224.842219,175.831096 225.757888,179.614875 223.987595,180.405515 C222.664963,180.970259 222.35974,179.181905 222.278347,178.221842 Z" id="Path" fill="#FF6687"></path>
                                <path d="M215.846453,171.838383 C215.846453,171.838383 223.376369,180.141418 227.024886,181.844115 C227.684724,182.131086 229.159656,178.496116 229.159656,178.496116 C229.159656,178.496116 229.470168,180.409258 230.925693,180.409258 C233.759115,180.409258 235.466931,169.600007 224.055614,167.801654 C219.106829,167.036397 215.846453,171.838383 215.846453,171.838383 Z" id="Path" fill="#FFBC4F"></path>
                                <path d="M229.987684,265.417083 C234.060159,266.493303 238.377298,266.154915 242.232424,264.457311 C248.187393,261.484384 252.898783,256.500255 255.532744,250.387047 C256.590586,246.944204 257.171762,243.372624 257.260059,239.771963 L229.987684,265.417083 Z" id="Path" fill="#2D2D2D"></path>
                                <path d="M186.648108,202.638201 L184.23443,199.682362 C183.7826,199.136818 183.735633,198.369926 184.117639,197.775369 L185.577525,195.506047 C185.763453,195.218176 186.074409,195.030302 186.420441,194.996774 C186.766472,194.963246 187.108969,195.087805 187.348853,195.334418 L194.29791,202.580991 L192.156744,205.765669 L186.648108,202.638201 Z" id="Path" fill="#2D2D2D"></path>
                                <path d="M194.795276,206.742232 C194.795276,206.742232 195.9489,203.987477 194.795276,202.968595 C193.641652,201.949714 191.257496,201.836504 190.776819,200.572336 C190.296143,199.308168 189.334789,200.572336 190.026964,201.57235 C190.719138,202.572364 191.449767,203.044068 191.315177,203.704455 C191.180588,204.364841 185.98928,200.893095 186.604546,202.968595 C187.507092,204.944373 188.67773,206.791318 190.084645,208.459237 L194.795276,206.742232 Z" id="Path" fill="#D1ADA3"></path>
                                <path d="M260.603293,224.05299 C260.796652,216.604495 259.791184,210.170833 258.205636,206.954002 C255.7113,201.879834 253.332979,199.065107 250.47126,197.64817 C246.659116,195.798936 242.174563,195.913356 238.46364,197.954535 C229.878482,202.779781 231.657388,215.187557 233.668326,224.761459 C242.582059,226.581194 251.799679,226.338744 260.603293,224.05299 Z" id="Path" fill="url(#linearGradient-10)"></path>
                                <path d="M233.409764,224.917477 C234.734592,231.339591 236.155421,236.550348 234.676991,237.530971 C230.606506,240.261331 194.624959,207.112453 194.624959,207.112453 L189.920862,208.862191 C189.920862,208.862191 203.265139,268.084083 232.680149,265.622914 C253.147774,263.911632 259.848713,241.395776 260.290322,224.263728 C251.501262,226.56097 242.299819,226.784753 233.409764,224.917477 L233.409764,224.917477 Z" id="Path" fill="#D1ADA3"></path>
                                <path d="M258.199038,207.072285 C257.098856,204.649566 255.658527,202.39567 253.921463,200.378533 C255.485946,205.574843 256.137842,211.002226 255.848299,216.420456 C255.405126,233.558769 248.661202,256.082859 228.140404,257.794766 C217.504272,258.679573 208.872049,251.543418 202.378613,242.060603 C209.392294,255.101878 219.469644,266.739004 232.899688,265.623378 C253.439754,263.911471 260.16441,241.387381 260.607582,224.249068 C260.780997,216.766684 259.779043,210.303751 258.199038,207.072285 Z" id="Path" fill="url(#linearGradient-11)" style="mix-blend-mode: multiply;"></path>
                                <path d="M229.0928,178.493294 C229.669057,176.866897 229.828202,175.137062 229.55744,173.442855 C229.55744,173.442855 229.981677,173.442855 230.163493,175.327347 C230.350875,176.48035 229.955538,177.649328 229.0928,178.493294 L229.0928,178.493294 Z" id="Path" fill="#2D2D2D"></path>
                                <path d="M188.910774,162.331887 C188.910774,162.331887 180.983353,149.908505 178.308811,128.59482 C175.634268,107.281135 180.810181,90.4798074 151.832764,89.538933 C123.201691,88.5980587 124.471618,85.9482492 91.0686991,88.0220131 C78.8682819,88.7640235 69.3611032,98.8660813 69.3836994,111.063835 L69.3836994,131.263831 C69.3836994,143.989478 79.7212947,154.305653 92.4733149,154.305653 L148.908085,154.305653 L188.910774,162.331887 Z" id="Path" fill-opacity="0.3" fill="#EEFFE8"></path>
                                <ellipse id="Oval" fill="url(#linearGradient-12)" transform="translate(120.937888, 120.541771) rotate(-22.310000) translate(-120.937888, -120.541771) " cx="120.937888" cy="120.541771" rx="25.1281843" ry="25.1384756"></ellipse>
                                <path d="M105.073474,119.234801 L137.059592,119.234801 C137.059592,119.234801 135.777852,130.410643 126.958713,132.584783 C118.139574,134.758923 107.101302,128.942145 105.073474,119.234801 Z" id="Path" fill="#2D2D2D"></path>
                                <path d="M115.011944,112.833863 C114.772667,112.833963 114.548178,112.719574 114.409649,112.526962 C113.596561,111.110715 112.158387,110.152318 110.523875,109.937489 C108.640118,110.153638 106.917237,111.09018 105.724943,112.546143 C105.605958,112.705367 105.425047,112.808322 105.225853,112.830173 C105.026659,112.852023 104.827269,112.790785 104.675784,112.661231 C104.359644,112.403878 104.308003,111.94503 104.559211,111.625442 C106.008656,109.779963 108.184085,108.629405 110.543303,108.46053 C112.692252,108.631709 114.621378,109.827418 115.711384,111.663804 C115.824814,111.821485 115.870118,112.017208 115.837322,112.207879 C115.804526,112.39855 115.696319,112.568537 115.536524,112.680412 C115.388986,112.797825 115.200456,112.852974 115.011944,112.833863 L115.011944,112.833863 Z" id="Path" fill="#2D2D2D"></path>
                                <path d="M126.697344,112.837577 C126.540827,112.836377 126.389495,112.782149 126.268755,112.683997 C126.104068,112.575472 125.991969,112.404934 125.958802,112.212458 C125.925634,112.019982 125.974322,111.822539 126.093423,111.666525 C127.181437,109.823872 129.118543,108.625431 131.27545,108.46053 L131.392338,108.46053 C133.691861,108.703979 135.796677,109.844767 137.23673,111.62813 C137.488616,111.94799 137.436835,112.407227 137.119842,112.664799 C136.793309,112.856834 136.372241,112.773847 136.145777,112.472823 C134.940954,111.026622 133.218281,110.09192 131.333894,109.861953 C129.659203,110.048172 128.175368,111.011101 127.340227,112.453626 C127.212722,112.687284 126.966543,112.83431 126.697344,112.837577 L126.697344,112.837577 Z" id="Path" fill="#2D2D2D"></path>
                                <path d="M107.767042,120.244889 L135.039416,120.244889 C132.018106,123.06027 128.0738,124.724205 123.915663,124.937526 C116.992085,125.239061 109.1671,122.242558 107.767042,120.244889 Z" id="Path" fill="#FFFFFF"></path>
                                <circle id="Oval" fill="#FFFFFF" cx="112.144089" cy="50.2121243" r="3.36695984"></circle>
                                <path d="M201.368525,6.77835656 C201.368525,10.4973899 198.353625,13.5122621 194.634591,13.5122621 C190.915558,13.5122621 187.900686,10.4973899 187.900686,6.77835656 C187.900686,3.05932324 190.915558,0.0444227162 194.634591,0.0444227162 C196.42212,0.0392622505 198.137931,0.747058892 199.40191,2.01103769 C200.665889,3.27501648 201.373686,4.99082814 201.368525,6.77835656 Z" id="Path" fill="#D2C4FF"></path>
                                <path d="M245.243282,59.3154798 C243.668903,59.9717763 241.854084,59.6129151 240.647976,58.4068073 C239.441868,57.2006995 239.083007,55.3858799 239.739304,53.8115015 C240.3956,52.2371232 241.937257,51.2145548 243.642933,51.2222555 C244.754083,51.2222555 245.819723,51.6636579 246.605424,52.4493593 C247.391125,53.2350607 247.832528,54.3007005 247.832528,55.41185 C247.840229,57.1175267 246.81766,58.6591834 245.243282,59.3154798 Z" id="Path" fill="#D2C4FF"></path>
                                <path d="M83.5248426,73.9492457 C83.5248073,74.836178 82.9894699,75.6353895 82.1693011,75.9729493 C81.3491324,76.3105092 80.4063283,76.1196619 79.7820029,75.4897 C79.1576776,74.8597381 78.975297,73.9152424 79.3201925,73.0981185 C79.665088,72.2809945 80.4690533,71.7528361 81.3559334,71.7607552 C81.9345655,71.7607317 82.489218,71.9919258 82.8965337,72.4029189 C83.3038495,72.8139119 83.5300555,73.3706261 83.5248426,73.9492457 L83.5248426,73.9492457 Z" id="Path" fill="#FFFFFF"></path>
                                <path d="M130.694537,165.394759 C129.839801,166.249252 128.454217,166.249121 127.599643,165.394466 C126.745069,164.539811 126.745069,163.154227 127.599643,162.299572 C128.454217,161.444917 129.839801,161.444786 130.694537,162.299279 C131.105099,162.709725 131.335761,163.266479 131.335761,163.847019 C131.335761,164.427559 131.105099,164.984313 130.694537,165.394759 L130.694537,165.394759 Z" id="Path" fill="#FFFFFF"></path>
                                <path d="M65.03882,228.356908 C64.1840841,229.211401 62.7985004,229.21127 61.9439264,228.356615 C61.0893523,227.50196 61.0893523,226.116376 61.9439264,225.261721 C62.7985004,224.407066 64.1840841,224.406935 65.03882,225.261428 C65.4493823,225.671874 65.6800436,226.228628 65.6800436,226.809168 C65.6800436,227.389708 65.4493823,227.946462 65.03882,228.356908 Z" id="Path" fill="#FFFFFF"></path>
                                <path d="M166.015447,84.2184187 C165.752519,85.0220331 165.005661,85.5652027 164.163619,85.5652027 C163.321577,85.5652027 162.574719,85.0220331 162.311791,84.2184187 C162.574719,83.4148044 163.321577,82.8716348 164.163619,82.8716348 C165.005661,82.8716348 165.752519,83.4148044 166.015447,84.2184187 L166.015447,84.2184187 Z" id="Path" fill="#FFFFFF"></path>
                                <circle id="Oval" fill="#FFFFFF" cx="59.7878639" cy="177.651554" r="1.17843594"></circle>
                                <path d="M239.122682,105.09357 L207.028979,105.09357 C204.646605,105.09357 202.715309,107.027967 202.715309,109.414115 L202.715309,132.149559 C202.715309,134.535707 204.646605,136.470062 207.028979,136.470062 L217.036693,136.470062 L218.762161,139.46561 L221.235331,143.766911 C221.626397,144.42236 222.332645,144.823696 223.095002,144.823696 C223.85736,144.823696 224.563607,144.42236 224.954673,143.766911 L227.427844,139.46561 L229.13414,136.508466 L239.141853,136.508466 C241.524228,136.508466 243.455523,134.574112 243.455523,132.187964 L243.455523,109.414115 C243.455523,108.264912 242.998429,107.163055 242.185308,106.352249 C241.372187,105.541444 240.270056,105.088505 239.122682,105.09357 Z" id="Path" fill="#FF6687"></path>
                                <path d="M232.933941,115.38051 C226.855128,109.954949 223.250028,118.064533 223.250028,118.064533 C223.250028,118.064533 219.644928,109.954949 213.566115,115.38051 C209.865134,118.716368 216.480877,126.059088 220.507851,129.912579 C222.038129,131.388021 224.461927,131.388021 225.992205,129.912579 C230.019179,126.059088 236.654098,118.716368 232.933941,115.38051 Z" id="Path" fill="#FFFFFF"></path>
                            </g>
                        </g>
                    </g>
                </g>
            </g>
        </g>
    </g>
</svg>