<?xml version="1.0" encoding="UTF-8"?>
<svg width="167px" height="53px" viewBox="0 0 167 53" version="1.1" xmlns="http://www.w3.org/2000/svg" xmlns:xlink="http://www.w3.org/1999/xlink">
    <!-- Generator: Sketch 63.1 (92452) - https://sketch.com -->
    <title>Disponível na Google Play</title>
    <desc>Botão de Disponível na Google Play</desc>
    <g id="Page-1" stroke="none" stroke-width="1" fill="none" fill-rule="evenodd">
        <g id="Personal-Site---Products" transform="translate(-934.000000, -675.000000)">
            <g id="App-Card-Copy" transform="translate(911.000000, 290.000000)">
                <g id="Google-Play-Button" transform="translate(24.000000, 386.000000)">
                    <g id="Group-2">
                        <rect id="Rectangle" stroke="#FFFFFF" x="0" y="0" width="165" height="51" rx="10"></rect>
                        <text id="Disponível-no-Google" font-family="Roobert-Light, Roobert" font-size="15" font-weight="300" fill="#FFFFFF">
                            <tspan x="48" y="20">Disponível no</tspan>
                            <tspan x="48" y="38" font-family="Roobert-Medium, Roobert" font-size="20" font-weight="400">Google Play</tspan>
                        </text>
                    </g>
                    <g id="Google-Play-Logo" transform="translate(8.750000, 8.750000)" fill="#FFFFFF" fill-rule="nonzero">
                        <path d="M1.51971154,0.144230769 C2.1418554,0.0634550959 2.77273069,0.201459065 3.30432692,0.534615385 L21.4293269,10.8379808 L16.8423077,15.4807692 L1.51971154,0.144230769 Z M0.125480769,1.53846154 C0.0380714724,1.84200154 -0.00420808265,2.15674934 -1.15435222e-13,2.47259615 L-1.15435222e-13,31.2774038 C-0.00420808265,31.5932507 0.0380714724,31.9079985 0.125480769,32.2115385 L15.4620192,16.875 L0.125480769,1.53846154 Z M16.85625,18.2692308 L1.51971154,33.6057692 C2.14214987,33.6938566 2.77551589,33.5553078 3.30432692,33.2153846 L21.4293269,22.9120192 L16.85625,18.2692308 Z M28.7350962,15.0067308 L23.2418269,11.8836538 L18.2225962,16.875 L23.2278846,21.8802885 L28.7211538,18.7572115 C30.5336538,17.7254808 30.5336538,16.0245192 28.7211538,14.9927885 L28.7350962,15.0067308 Z" id="Shape"></path>
                    </g>
                </g>
            </g>
        </g>
    </g>
</svg>