<?xml version="1.0" encoding="UTF-8"?>
<svg width="37px" height="36px" viewBox="0 0 37 36" version="1.1" xmlns="http://www.w3.org/2000/svg" xmlns:xlink="http://www.w3.org/1999/xlink">
    <!-- Generator: Sketch 63.1 (92452) - https://sketch.com -->
    <title>linkedin.com/in/ifdouglas</title>
    <g id="linkedin" stroke="none" stroke-width="1" fill="none" fill-rule="evenodd">
        <g id="linkedin---Content" transform="translate(-188.000000, -971.000000)" fill="#FFFFFF" fill-rule="nonzero">
            <path d="M222.660076,971 C223.902076,971 224.910076,972.008 224.910076,973.25 L224.910076,1004.75 C224.910076,1005.992 223.902076,1007 222.660076,1007 L191.160076,1007 C189.918076,1007 188.910076,1005.992 188.910076,1004.75 L188.910076,973.25 C188.910076,972.008 189.918076,971 191.160076,971 L222.660076,971 Z M201.285076,983.375 L196.785076,983.375 L196.785076,999.125 L201.285076,999.125 L201.285076,983.375 Z M208.035076,983.375 L203.535076,983.375 L203.535076,999.125 L208.035076,999.125 L208.035076,990.125 L208.039186,989.946099 C208.102142,988.601342 208.886747,987.875 210.285076,987.875 C211.709326,987.875 212.535076,988.649 212.535076,990.125 L212.535076,990.125 L212.535076,999.125 L217.035076,999.125 L217.035076,991.25 L217.034452,991.001172 C217.012033,986.626157 216.366034,983.375 211.971451,983.375 L211.971451,983.375 L211.693105,983.378122 C208.889546,983.442302 208.318332,984.485411 208.059239,985.52449 L208.059239,985.52449 L208.035076,985.624 L208.035076,983.375 Z M199.035076,977.75 C197.792435,977.75 196.785076,978.757359 196.785076,980 C196.785076,981.242641 197.792435,982.25 199.035076,982.25 C200.277716,982.25 201.285076,981.242641 201.285076,980 C201.285076,978.757359 200.277716,977.75 199.035076,977.75 Z" id="LinkedIn-Logo"></path>
        </g>
    </g>
</svg>