<?xml version="1.0" encoding="UTF-8"?>
<svg width="31px" height="18px" viewBox="0 0 31 18" version="1.1" xmlns="http://www.w3.org/2000/svg" xmlns:xlink="http://www.w3.org/1999/xlink">
    <title>medium.com/@tuntz</title>
    <g id="Page-1" stroke="none" stroke-width="1" fill="none" fill-rule="evenodd">
        <g id="medium" transform="translate(-25.459600, -24.173762)" fill="#FFFFFF">
            <g id="Group-2" transform="translate(25.678019, 24.375646)">
                <path d="M16.8607327,8.48836654 C16.8607327,13.1762156 13.0862795,16.9764467 8.43050954,16.9764467 C3.7747396,16.9764467 -1.17122429e-15,13.1762156 -1.17122429e-15,8.48836654 C-1.17122429e-15,3.80051747 3.77445317,0 8.43050954,0 C13.0865659,0 16.8607327,3.80051747 16.8607327,8.48836654" id="Path"></path>
                <path d="M26.1089736,8.48836654 C26.1089736,12.9009652 24.221747,16.4795066 21.8937188,16.4795066 C19.5656906,16.4795066 17.678464,12.9009652 17.678464,8.48836654 C17.678464,4.07576785 19.5654042,0.497226492 21.8934324,0.497226492 C24.2214606,0.497226492 26.1086871,4.07462216 26.1086871,8.48836654" id="Path"></path>
                <path d="M29.8917329,8.48836654 C29.8917329,12.4409734 29.228096,15.6471678 28.4092189,15.6471678 C27.5903419,15.6471678 26.9269913,12.4418327 26.9269913,8.48836654 C26.9269913,4.53490037 27.5906283,1.32956531 28.4092189,1.32956531 C29.2278095,1.32956531 29.8917329,4.53461395 29.8917329,8.48836654" id="Path"></path>
            </g>
        </g>
    </g>
</svg>