<?xml version="1.0" encoding="UTF-8"?>
<svg width="476px" height="490px" viewBox="0 0 476 490" version="1.1" xmlns="http://www.w3.org/2000/svg" xmlns:xlink="http://www.w3.org/1999/xlink">
    <!-- Generator: Sketch 63.1 (92452) - https://sketch.com -->
    <title>moon</title>
    <desc>Created with Sketch.</desc>
    <g id="Page-1" stroke="none" stroke-width="1" fill="none" fill-rule="evenodd">
        <g id="moon" fill-rule="nonzero">
            <path d="M455.386,299.769 C455.796,299.35 456.203,298.93 456.609,298.508 C464.334,290.47 477.741,297.849 475.008,308.656 C464.196,351.403 441.49,391.758 406.904,424.468 C311.467,514.728 160.047,511.291 68.58,417.011 C-22.867,322.752 -21.997,172.211 71.191,79.023 C102.975,47.239 141.439,26.19 182.062,15.883 C192.851,13.145 200.414,26.495 192.386,34.205 C191.461,35.093 190.543,35.993 189.632,36.904 C115.512,111.024 116.665,231.906 193.068,304.573 C266.83,374.728 384.178,372.516 455.386,299.769 Z" id="Path" fill="#FCE25C"></path>
            <path d="M374.639,450.131 C279.879,512.971 150.299,501.251 68.579,417.011 C-22.871,322.751 -22.001,172.211 71.189,79.021 C102.969,47.241 141.429,26.191 182.059,15.881 C183.579,15.491 185.029,15.431 186.389,15.631 C173.789,24.131 161.829,33.951 150.679,45.101 C57.489,138.291 56.619,288.831 148.069,383.091 C208.549,445.431 295.249,468.061 374.639,450.131 Z" id="Path" fill="#FBD307"></path>
            <path d="M384.528,203.895 L391.69,218.407 C392.817,220.691 394.997,222.275 397.518,222.641 L413.533,224.968 C419.882,225.891 422.417,233.692 417.823,238.17 L406.234,249.466 C404.41,251.244 403.577,253.806 404.008,256.317 L406.744,272.268 C407.828,278.591 401.192,283.413 395.513,280.428 L381.188,272.897 C378.933,271.712 376.239,271.712 373.984,272.897 L359.659,280.428 C353.981,283.413 347.344,278.591 348.428,272.268 L351.164,256.317 C351.595,253.806 350.762,251.244 348.938,249.466 L337.349,238.17 C332.755,233.692 335.29,225.89 341.639,224.968 L357.654,222.641 C360.175,222.275 362.354,220.691 363.482,218.407 L370.644,203.895 C373.485,198.142 381.689,198.142 384.528,203.895 L384.528,203.895 Z" id="Path" fill="#FCE25C"></path>
            <path d="M362.97,259.501 C362.97,265.661 364.12,271.561 366.22,276.981 L359.66,280.431 C353.98,283.411 347.35,278.591 348.43,272.271 L351.17,256.321 C351.6,253.811 350.77,251.241 348.94,249.471 L337.35,238.171 C332.76,233.691 335.29,225.891 341.64,224.971 L357.66,222.641 C360.18,222.271 362.36,220.691 363.49,218.411 L370.65,203.891 C373.49,198.141 381.69,198.141 384.53,203.891 L390.43,215.861 C374.18,223.661 362.97,240.271 362.97,259.501 Z" id="Path" fill="#FBD307"></path>
            <path d="M320.03,9.19 L330.494,30.392 C332.895,35.256 337.535,38.628 342.903,39.408 L366.301,42.808 C379.819,44.772 385.217,61.384 375.435,70.919 L358.504,87.423 C354.62,91.209 352.847,96.664 353.764,102.011 L357.761,125.315 C360.07,138.778 345.939,149.045 333.848,142.689 L312.92,131.687 C308.119,129.163 302.383,129.163 297.582,131.687 L276.654,142.689 C264.563,149.046 250.432,138.779 252.741,125.315 L256.738,102.011 C257.655,96.665 255.882,91.21 251.998,87.423 L235.067,70.919 C225.285,61.384 230.683,44.772 244.201,42.808 L267.599,39.408 C272.967,38.628 277.607,35.257 280.008,30.392 L290.472,9.19 C296.518,-3.06 313.985,-3.06 320.03,9.19 Z" id="Path" fill="#FCE25C"></path>
            <path d="M287.541,107.768 C287.541,117.168 289.071,126.218 291.891,134.668 L276.651,142.688 C264.561,149.038 250.431,138.778 252.741,125.308 L256.741,102.008 C257.651,96.658 255.881,91.208 252.001,87.418 L235.061,70.918 C225.281,61.378 230.681,44.768 244.201,42.808 L267.601,39.408 C272.961,38.628 277.611,35.248 280.011,30.388 L290.471,9.188 C296.521,-3.062 313.981,-3.062 320.031,9.188 L330.491,30.388 C330.961,31.338 331.521,32.238 332.161,33.068 C305.591,47.388 287.541,75.468 287.541,107.768 L287.541,107.768 Z" id="Path" fill="#FBD307"></path>
        </g>
    </g>
</svg>