<?xml version="1.0" encoding="UTF-8"?>
<svg width="83px" height="84px" viewBox="0 0 83 84" version="1.1" xmlns="http://www.w3.org/2000/svg" xmlns:xlink="http://www.w3.org/1999/xlink">
    <!-- Generator: Sketch 63.1 (92452) - https://sketch.com -->
    <title>Group 5</title>
    <desc>Created with Sketch.</desc>
    <defs>
        <rect id="path-1" x="0" y="0" width="75" height="75" rx="15"></rect>
        <filter x="-9.3%" y="-6.7%" width="118.7%" height="118.7%" filterUnits="objectBoundingBox" id="filter-2">
            <feOffset dx="0" dy="2" in="SourceAlpha" result="shadowOffsetOuter1"></feOffset>
            <feGaussianBlur stdDeviation="2" in="shadowOffsetOuter1" result="shadowBlurOuter1"></feGaussianBlur>
            <feColorMatrix values="0 0 0 0 0   0 0 0 0 0   0 0 0 0 0  0 0 0 0.5 0" type="matrix" in="shadowBlurOuter1"></feColorMatrix>
        </filter>
    </defs>
    <g id="Page-1" stroke="none" stroke-width="1" fill="none" fill-rule="evenodd">
        <g id="Personal-Site---Products" transform="translate(-1352.000000, -81.000000)">
            <g id="Group-5" transform="translate(1356.000000, 83.500000)">
                <g id="Rectangle">
                    <use fill="black" fill-opacity="1" filter="url(#filter-2)" xlink:href="#path-1"></use>
                    <use fill="#D8D8D8" fill-rule="evenodd" xlink:href="#path-1"></use>
                </g>
                <text id="NO-LOGO" opacity="0.2" font-family="Roobert-Light, Roobert" font-size="10" font-weight="300" fill="#000000">
                    <tspan x="15.145" y="63.5">NO LOGO</tspan>
                </text>
                <path d="M37.5003251,9.5 C26.5149181,9.5 17.5778362,18.4370819 17.5778362,29.4221638 C17.5778362,40.4072457 26.5149181,49.3443276 37.5003251,49.3443276 C48.4850819,49.3443276 57.4221638,40.4072457 57.4221638,29.4221638 C57.4221638,18.4370819 48.4850819,9.5 37.5003251,9.5 Z M37.5003251,10.8003175 C42.2105625,10.8003175 46.5147759,12.56176 49.7977524,15.4559416 L45.3511543,19.9025397 L44.2450717,19.9025397 C44.2384076,19.8932749 44.2371073,19.8820597 44.2299556,19.8729575 L42.1047492,17.2087695 C41.4926248,16.4414197 40.578339,16.0014248 39.5967619,16.0014248 L37.0214832,16.0014248 C35.9453079,16.0014248 34.9465016,16.5363429 34.3496559,17.4322616 L32.7058921,19.9023771 L31.9666616,19.9023771 L31.9666616,18.6020597 C31.9666616,18.2430095 31.6758781,17.951901 31.3165029,17.951901 L27.4155505,17.951901 C27.0561752,17.951901 26.7653917,18.2430095 26.7653917,18.6020597 L26.7653917,19.9023771 L26.4313727,19.9023771 C25.18128,19.9023771 24.1647568,20.9192254 24.1647568,22.1686679 L24.1647568,37.7908444 C24.1647568,38.681887 24.6861841,39.4469613 25.4361422,39.8169016 L23.5336152,41.7199162 C20.6394337,38.4369397 18.8781537,34.1325638 18.8781537,29.4221638 C18.8781537,19.1538819 27.2317181,10.8003175 37.5003251,10.8003175 L37.5003251,10.8003175 Z M26.4316978,38.7571429 C25.8990552,38.7571429 25.4653994,38.3238121 25.4653994,37.7911695 L25.4653994,28.3546032 L30.6539911,28.3546032 C30.5997029,28.7035759 30.5631314,29.0582375 30.5631314,29.4221638 C30.5631314,30.9092394 31.0377473,32.2853003 31.8376051,33.4159263 L26.4963886,38.7571429 L26.4316978,38.7571429 Z M34.3568076,29.4221638 C34.3568076,27.6891657 35.7670019,26.2789714 37.5003251,26.2789714 C37.9347937,26.2789714 38.3487822,26.3678806 38.7255492,26.5281448 L34.6061435,30.6475505 C34.4457168,30.2707835 34.3568076,29.8567949 34.3568076,29.4221638 L34.3568076,29.4221638 Z M40.6431924,29.4221638 C40.6431924,31.1551619 39.2329981,32.5653562 37.5003251,32.5653562 C36.6770616,32.5653562 35.9327924,32.2402768 35.3718679,31.7204749 L39.7984737,27.2938692 C40.318113,27.8547937 40.6431924,28.5990629 40.6431924,29.4221638 L40.6431924,29.4221638 Z M34.4486425,32.6437003 C35.2455746,33.3988597 36.3183365,33.8656737 37.5003251,33.8656737 C39.9504483,33.8656737 41.9435098,31.872287 41.9435098,29.4221638 C41.9435098,28.2403378 41.4768584,27.1675759 40.721699,26.3706438 L41.5649549,25.5273879 C42.535967,26.5404978 43.1365511,27.9113575 43.1365511,29.4221638 C43.1365511,32.5304102 40.6082463,35.05904 37.5003251,35.05904 C35.9895187,35.05904 34.6184965,34.4581308 33.6053867,33.4869562 L34.4486425,32.6437003 Z M39.6920102,25.5616838 C39.0444521,25.1925562 38.2975822,24.978654 37.5003251,24.978654 C35.0502019,24.978654 33.0564902,26.9720406 33.0564902,29.4221638 C33.0564902,30.219421 33.2703924,30.9664533 33.63952,31.6140114 L32.7723708,32.4811606 C32.1997435,31.5990578 31.8632863,30.5500267 31.8632863,29.4221638 C31.8632863,26.3139175 34.3922413,23.7852876 37.5001625,23.7852876 C38.6278629,23.7852876 39.6770565,24.1215822 40.5589968,24.6943721 L39.6920102,25.5616838 Z M32.6862248,34.4061181 C33.9350171,35.6126502 35.6307937,36.3593575 37.5003251,36.3593575 C41.3250463,36.3593575 44.4368686,33.2473727 44.4368686,29.4221638 C44.4368686,29.0582375 44.4002971,28.7035759 44.3460089,28.3546032 L44.8555708,28.3546032 C45.2082819,29.0449092 45.9187429,29.523426 46.7454197,29.523426 C47.5720965,29.523426 48.28272,29.0447467 48.6352686,28.3546032 L50.1714311,28.3546032 L50.1714311,37.7911695 C50.1714311,38.3238121 49.7377752,38.7571429 49.2051327,38.7571429 L28.3352,38.7571429 L32.6862248,34.4061181 Z M45.9161422,27.3941562 C45.9161422,26.9370946 46.2881956,26.5648787 46.7454197,26.5648787 C47.2026438,26.5648787 47.5746971,26.9369321 47.5746971,27.3941562 C47.5746971,27.8513803 47.2026438,28.2231086 46.7454197,28.2231086 C46.2881956,28.2231086 45.9161422,27.8513803 45.9161422,27.3941562 Z M50.1714311,27.0542857 L48.8405562,27.0542857 C48.6763911,26.0419886 47.8029029,25.2647238 46.7454197,25.2647238 C45.6879365,25.2647238 44.8144483,26.0419886 44.6502832,27.0542857 L44.0118273,27.0542857 C43.6755327,26.1325232 43.1531302,25.3009702 42.4839543,24.6083886 L45.8894857,21.2028571 L49.2049702,21.2028571 C49.7376127,21.2028571 50.1712686,21.6361879 50.1712686,22.1688305 L50.1712686,27.0542857 L50.1714311,27.0542857 Z M41.4939251,23.7597689 C40.3634616,22.9599111 38.9874006,22.4851327 37.5003251,22.4851327 C34.5074819,22.4851327 31.9591848,24.3935111 30.9883352,27.0542857 L25.4653994,27.0542857 L25.4653994,22.1688305 C25.4653994,21.6361879 25.8990552,21.2028571 26.4316978,21.2028571 L44.0506743,21.2028571 L41.4939251,23.7597689 Z M30.6666692,19.9025397 L28.0660343,19.9025397 L28.0660343,19.252381 L30.6666692,19.252381 L30.6666692,19.9025397 Z M34.2687111,19.9025397 L35.4324952,18.1529625 C35.7874819,17.6199949 36.381727,17.3019048 37.0216457,17.3019048 L39.5967619,17.3019048 C40.1802794,17.3019048 40.7244622,17.5637562 41.088226,18.0200051 L42.5896051,19.9025397 L34.2687111,19.9025397 Z M37.5003251,48.0440102 C32.4092571,48.0440102 27.7905295,45.9886959 24.425633,42.6667098 L27.0348825,40.0574603 L49.2049702,40.0574603 C50.4550629,40.0574603 51.471586,39.0406121 51.471586,37.7911695 L51.471586,22.168993 C51.471586,20.9193879 50.4550629,19.9027022 49.2049702,19.9027022 L47.1898032,19.9027022 L50.744546,16.3479594 C54.0665321,19.7128559 56.1218463,24.331421 56.1218463,29.4223263 C56.1218463,39.6904457 47.7682819,48.0440102 37.5003251,48.0440102 Z" id="Shape" fill-opacity="0.1" fill="#000000" fill-rule="nonzero"></path>
            </g>
        </g>
    </g>
</svg>