<?xml version="1.0" encoding="UTF-8"?>
<svg width="491px" height="491px" viewBox="0 0 491 491" version="1.1" xmlns="http://www.w3.org/2000/svg" xmlns:xlink="http://www.w3.org/1999/xlink">
    <!-- Generator: Sketch 63.1 (92452) - https://sketch.com -->
    <title>sunny</title>
    <desc>Created with Sketch.</desc>
    <g id="Page-1" stroke="none" stroke-width="1" fill="none" fill-rule="evenodd">
        <g id="sunny" fill-rule="nonzero">
            <circle id="Oval" fill="#FFC107" cx="245.333" cy="245.333" r="160"></circle>
            <g id="Group" fill="#FFD54F">
                <path d="M245.333,64 C251.224,64 256,59.224 256,53.333 L256,10.667 C256,4.776 251.224,0 245.333,0 C239.442,0 234.666,4.776 234.666,10.667 L234.666,53.334 C234.667,59.224 239.442,64 245.333,64 Z" id="Path"></path>
                <path d="M245.333,426.667 C239.442,426.667 234.666,431.443 234.666,437.334 L234.666,480 C234.666,485.891 239.442,490.667 245.333,490.667 C251.224,490.667 256,485.891 256,480 L256,437.333 C256,431.442 251.224,426.667 245.333,426.667 Z" id="Path"></path>
                <path d="M480,234.667 L437.333,234.667 C431.442,234.667 426.666,239.443 426.666,245.334 C426.666,251.225 431.442,256.001 437.333,256.001 L480,256.001 C485.891,256.001 490.667,251.225 490.667,245.334 C490.667,239.442 485.891,234.667 480,234.667 Z" id="Path"></path>
                <path d="M64,245.333 C64,239.442 59.224,234.666 53.333,234.666 L10.667,234.666 C4.776,234.667 0,239.442 0,245.333 C0,251.224 4.776,256 10.667,256 L53.334,256 C59.224,256 64,251.224 64,245.333 Z" id="Path"></path>
                <path d="M140.096,84.395 C142.005,87.702 145.536,89.736 149.355,89.7280735 C151.228,89.735 153.07,89.242 154.688,88.299 C159.79,85.353 161.537,78.83 158.592,73.728 L137.259,36.779 C134.28,31.697 127.745,29.992 122.663,32.971 C117.628,35.922 115.9,42.372 118.785,47.445 L140.096,84.395 Z" id="Path"></path>
                <path d="M350.571,406.272 C347.591,401.19 341.056,399.486 335.974,402.466 C330.941,405.418 329.213,411.866 332.096,416.939 L353.429,453.888 C355.338,457.195 358.869,459.229 362.688,459.221074 C364.561,459.228 366.403,458.735 368.021,457.792 C373.123,454.846 374.87,448.323 371.925,443.221 L350.571,406.272 Z" id="Path"></path>
                <path d="M411.605,160 C413.478,160.007 415.32,159.514 416.938,158.571 L453.887,137.238 C459.107,134.507 461.125,128.062 458.394,122.842 C455.663,117.622 449.218,115.604 443.998,118.335 C443.732,118.474 443.473,118.624 443.22,118.785 L406.271,140.118 C401.169,143.064 399.422,149.588 402.367,154.689 C404.272,157.989 407.793,160.022 411.604,160.022 L411.604,160 L411.605,160 Z" id="Path"></path>
                <path d="M73.728,332.096 L36.779,353.429 C31.677,356.375 29.93,362.898 32.875,368 C34.78,371.3 38.301,373.333074 42.112,373.333074 C43.985,373.34 45.827,372.847 47.445,371.904 L84.394,350.571 C89.614,347.84 91.632,341.395 88.901,336.175 C86.17,330.955 79.725,328.937 74.505,331.668 C74.239,331.807 73.98,331.957 73.727,332.118 L73.728,332.096 Z" id="Path"></path>
                <path d="M36.779,137.237 L73.728,158.57 C75.341,159.509 77.174,160.003 79.04,159.999024 C84.931,159.999024 89.706,155.223 89.706,149.332 C89.706,145.522 87.673,142.001 84.373,140.095 L47.424,118.762 C42.452,115.602 35.86,117.07 32.7,122.041 C29.54,127.012 31.008,133.605 35.979,136.765 C36.232,136.926 36.491,137.076 36.757,137.215 L36.779,137.237 Z" id="Path"></path>
                <path d="M453.888,353.429 L416.939,332.096 C411.967,328.936 405.375,330.404 402.215,335.375 C399.055,340.346 400.523,346.939 405.494,350.099 C405.747,350.26 406.007,350.41 406.272,350.549 L443.221,371.882 C444.84,372.825 446.681,373.318 448.554,373.311074 C454.445,373.311074 459.22,368.535 459.22,362.644 C459.22,358.833 457.187,355.312 453.887,353.407 L453.887,353.429 L453.888,353.429 Z" id="Path"></path>
                <path d="M336,88.299 C337.619,89.242 339.46,89.735 341.333,89.7280735 C345.151,89.736 348.682,87.701 350.592,84.395 L371.925,47.446 C374.836,42.325 373.044,35.813 367.923,32.902 C362.85,30.019 356.402,31.746 353.45,36.78 L332.117,73.729 C329.168,78.824 330.906,85.346 336,88.299 Z" id="Path"></path>
                <path d="M154.667,402.368 C149.565,399.423 143.042,401.17 140.096,406.272 L118.763,443.221 C115.818,448.323 117.565,454.846 122.667,457.792 C124.286,458.735 126.127,459.228 128,459.221074 C131.818,459.229 135.35,457.194 137.259,453.888 L158.592,416.939 C161.532,411.834 159.778,405.312 154.673,402.372 C154.671,402.37 154.669,402.369 154.667,402.368 Z" id="Path"></path>
            </g>
        </g>
    </g>
</svg>