<?xml version="1.0" encoding="UTF-8"?>
<svg width="36px" height="30px" viewBox="0 0 36 30" version="1.1" xmlns="http://www.w3.org/2000/svg" xmlns:xlink="http://www.w3.org/1999/xlink">
    <title>twitter.com/ifdouglas</title>
    <g id="Page-1" stroke="none" stroke-width="1" fill="none" fill-rule="evenodd">
        <g id="twitter">
            <rect id="Rectangle" x="3.9375" y="0.69750018" width="28.125" height="28.125"></rect>
            <path d="M11.3212969,29.3859143 C24.9062344,29.3859143 32.3366484,18.1309221 32.3366484,8.37056268 C32.3366484,8.05092206 32.3366484,7.73268768 32.3150625,7.41585956 C33.7605469,6.37024237 35.0083828,5.07571895 36,3.59268768 C34.6520391,4.18999237 33.2219531,4.58163299 31.7577656,4.75474237 C33.2992969,3.8319611 34.4537578,2.37944549 35.0049375,0.669445492 C33.5551641,1.52971893 31.9688438,2.13609393 30.3148828,2.46227362 C28.9183359,0.977203307 26.9678672,0.134086117 24.9294375,0.134086117 C20.8736719,0.134086117 17.5364297,3.47139862 17.5364297,7.5270236 C17.5364297,8.08966426 17.6006953,8.65054706 17.7278203,9.19856268 C11.7921797,8.90107049 6.25422658,6.09349237 2.50558594,1.48162518 C0.556242188,4.83735956 1.564875,9.18618768 4.79228908,11.3412658 C3.61701562,11.3064611 2.46698437,10.9893518 1.44,10.4167971 L1.44,10.510383 C1.44098437,14.0129299 3.93236719,17.0572502 7.36558592,17.7507424 C6.27827342,18.0472502 5.13717188,18.0905627 4.03059373,17.8774455 C4.99577342,20.8787346 7.77902342,22.9475393 10.9310625,23.0067424 C8.31614062,25.0617658 5.08408592,26.1780471 1.75823437,26.1747424 C1.1705625,26.1736174 0.583453127,26.1380393 0,26.0681486 C3.37739062,28.2355314 7.30828123,29.3854924 11.3212969,29.3801486" id="Path" fill="#FFFFFF" fill-rule="nonzero"></path>
        </g>
    </g>
</svg>